<svg width="36" height="36" viewBox="0 0 36 36" fill="none" xmlns="http://www.w3.org/2000/svg"><path d="M36 18a17.9 17.9 0 0 1-18 18A17.9 17.9 0 0 1 0 18 17.9 17.9 0 0 1 18 0a17.9 17.9 0 0 1 18 18Z" fill="#FF7236"/><path d="M24.8 15.5c-3 1.7-2.5 6.7.8 6.7 1.3 0 2.5-1 3-2.4 1.3-3-1.3-5.7-3.8-4.3ZM21.8 16.1c3.5 0 4.6-6 1.2-7-1.5-.4-3.3.6-3.9 2.6-.6 2.2.7 4.4 2.7 4.4Z" fill="#FFFEFD"/><path d="m20.8 26.9-2.2-.2c-1 0-2 0-2.7.2-1.8.5-4.2-.7-3.6-3.2.4-2.3 2.2-2.2 2.6-4.3.4-2.2 2-3.3 3.7-3.2 1.4 0 2.8 1.1 3.2 3.2.5 2.1 2.2 2 2.7 4.3.5 2.5-1.9 3.7-3.7 3.2ZM15.5 16.1c1 0 1.9-.5 2.3-1.4C19.3 12 17 8.3 14.3 9c-3.4 1-2.4 7 1.2 7Z" fill="#FFFEFD"/><path d="M13.9 20.2c1.1-2.8-1.6-6.2-4.2-5.1-3 1.3-1.7 6.8 1.7 6.8 1.1 0 2-.6 2.5-1.7ZM20.8 26.9l-2.2-.2V16.2c1.4 0 2.8 1.1 3.2 3.2.5 2.1 2.2 2 2.7 4.3.5 2.5-1.9 3.7-3.7 3.2Z" fill="#FFFEFD"/></svg>