<svg width="36" height="36" fill="none" xmlns="http://www.w3.org/2000/svg"><path d="M36 18c0 4.808-1.872 9.328-5.272 12.728A17.884 17.884 0 0 1 18.002 36H18a17.882 17.882 0 0 1-12.728-5.272C1.872 27.328 0 22.808 0 18S1.872 8.672 5.272 5.272C8.672 1.872 13.192 0 18 0h.002c4.807 0 9.327 1.873 12.726 5.272C34.128 8.672 36 13.192 36 18Z" fill="#FFFEFD"/><path d="M24.803 15.524c-2.964 1.7-2.46 6.663.756 6.663 1.387 0 2.587-1.042 3.122-2.375 1.234-3.078-1.333-5.748-3.878-4.288ZM21.759 16.14c3.556 0 4.621-6.04 1.242-7.034-1.54-.452-3.29.633-3.852 2.617-.631 2.223.61 4.416 2.61 4.416Z" fill="#FF7236"/><path d="M20.844 26.89c-.494-.136-1.37-.224-2.289-.237-.97-.014-1.985.055-2.642.237-1.775.495-4.19-.701-3.66-3.186.49-2.296 2.251-2.165 2.668-4.341.42-2.2 2.05-3.261 3.634-3.179 1.467.077 2.895 1.135 3.284 3.179.414 2.178 2.171 2.046 2.66 4.341.532 2.487-1.888 3.676-3.655 3.186ZM15.499 16.14c1.006 0 1.87-.585 2.35-1.48 1.427-2.659-.917-6.34-3.593-5.552-3.385.996-2.312 7.031 1.243 7.031Z" fill="#FF7236"/><path d="M13.89 20.21c1.143-2.794-1.564-6.208-4.15-5.134C6.627 16.37 8 21.95 11.425 21.95c1.099 0 2.033-.677 2.467-1.739ZM20.844 26.89c-.494-.136-1.371-.224-2.289-.237V16.184c1.467.077 2.895 1.135 3.284 3.179.414 2.178 2.171 2.046 2.66 4.341.532 2.486-1.888 3.676-3.655 3.186Z" fill="#FF7236"/></svg>