<svg width="36" height="36" viewBox="0 0 36 36" fill="none" xmlns="http://www.w3.org/2000/svg">
<path d="M36 18C36 22.8079 34.1277 27.3277 30.7279 30.7279C27.329 34.1268 22.8093 35.9992 18.0022 36H18C13.1921 36 8.67152 34.1277 5.27207 30.7279C1.87235 27.3277 7.62939e-06 22.8079 7.62939e-06 18C7.62939e-06 13.1921 1.87235 8.67151 5.27207 5.27206C8.67152 1.87234 13.1921 0 18 0H18.0022C22.8093 0.000823978 27.329 1.87317 30.7279 5.27206C34.1277 8.67151 36 13.1921 36 18Z" fill="#FFFEFD"/>
<path d="M24.8031 15.5245C21.8387 17.2247 22.3436 22.1874 25.5591 22.1874C26.946 22.1874 28.1462 21.1448 28.6806 19.8119C29.9148 16.7336 27.3483 14.0643 24.8031 15.5245Z" fill="#FF7236"/>
<path d="M21.7586 16.1392C25.3154 16.1392 26.3804 10.0993 23.0012 9.10631C21.4617 8.65404 19.711 9.73923 19.1487 11.723C18.5178 13.9464 19.759 16.1392 21.7586 16.1392Z" fill="#FF7236"/>
<path d="M20.8437 26.8903C20.3498 26.7537 19.4731 26.6658 18.5555 26.6531C17.5855 26.6389 16.57 26.7084 15.9129 26.8903C14.1382 27.3847 11.7235 26.1886 12.2533 23.7045C12.7434 21.408 14.5042 21.5389 14.9206 19.3625C15.3402 17.163 16.9706 16.1015 18.5555 16.1844C20.0223 16.2614 21.4499 17.3192 21.8389 19.363C22.2529 21.5409 24.0101 21.4088 24.4995 23.7045C25.0312 26.1906 22.6114 27.3802 20.8437 26.8903Z" fill="#FF7236"/>
<path d="M15.4987 16.1393C16.5048 16.1393 17.3689 15.555 17.849 14.6607C19.2763 12.0014 16.9321 8.32 14.2558 9.10841C10.8709 10.1041 11.9439 16.1393 15.4987 16.1393Z" fill="#FF7236"/>
<path d="M13.8909 20.21C15.033 17.4157 12.3259 14.0024 9.74052 15.0764C6.62627 16.3699 7.9998 21.9488 11.424 21.9488C12.523 21.9488 13.4568 21.2723 13.8909 20.21Z" fill="#FF7236"/>
<path d="M20.8437 26.8902C20.3497 26.7536 19.473 26.6657 18.5554 26.6529V16.1843C20.0223 16.2613 21.4498 17.3191 21.8388 19.3629C22.2528 21.5407 24.01 21.4087 24.4994 23.7044C25.0311 26.1905 22.6113 27.3801 20.8437 26.8902Z" fill="#FF7236"/>
</svg>
