<svg viewBox="0 0 18 18" fill="none" xmlns="http://www.w3.org/2000/svg"><path d="M16.3 14.7h-4.5a7.9 7.9 0 1 0-4 1h8.5a.6.6 0 0 1 0 1.2H9A.5.5 0 1 0 9 18h7.3a1.7 1.7 0 1 0 0-3.3Zm-8.4 0H7l5.8-3.4.7.4a6.8 6.8 0 0 1-5.6 3ZM4 13.5l6.3-3.6 1.4.8-6.2 3.6-1.5-.8ZM3.5 2.6 5 1.7V9l-1.4.8V2.6ZM6 1.3l1.3-.2v6.5L6 8.4v-7ZM14.7 8v.5L8.4 4.7V3.1l6.2 3.6V8Zm-6.3-2 6 3.6c0 .4-.2.9-.4 1.3L8.4 7.6V6Zm5.8-.7L8.4 2v-.8c2.6.2 4.8 1.8 5.8 4.1ZM2.5 3.7v6.7l-.8.4a6.8 6.8 0 0 1 .8-7Zm-.2 8 5.6-3.2 1.4.8-6.1 3.5-1-1Z" fill="#777"/></svg>