<svg viewBox="0 0 16 18" fill="none" xmlns="http://www.w3.org/2000/svg"><path d="M15.1 15.3h-5V2.7h2v5c-.6.1-1 .7-1 1.3 0 .7.6 1.4 1.3 1.4.7 0 1.3-.7 1.3-1.4 0-.6-.5-1.2-1-1.3v-5h1.7c.4 0 .8-.4.8-1V1c0-.5-.4-.9-.8-.9H1.6C1.2 0 .8.4.8 1v.8c0 .5.4.9.8.9h4.2v12.6h-5c-.4 0-.8.4-.8 1v.8c0 .5.4.9.9.9H15c.5 0 .9-.4.9-1v-.8c0-.5-.4-.9-.9-.9Zm-2-6.3c0 .4-.3.8-.7.8a.8.8 0 0 1-.8-.8c0-.4.4-.8.8-.8s.7.4.7.8ZM1.6 1.8V.9c0-.2.3-.2.5-.2h12c.3 0 .4 0 .4.2v.9c0 .2-.1.2-.3.2H2c-.2 0-.5 0-.5-.2Zm5 11.5h.3L7 13c0-.2 0-.3-.2-.3h-.3v-2h2.9c.2 0 1-.3.4-.4.7-.2-.2-.3-.4-.3h-3V8h2.6c.2 0-.2-.2-.2-.3 0-.2.4-.3.2-.3H6.6V2.7h2.9v2H6.3c-.1 0 0 0 0 .2 0 .4-.2.4-.2.4h3.4v2h-.4l-.2.4c0 .1 0 .3.2.3h.4V12.7H6.9c-.2 0 .2.1.2.3 0 .1-.4.3-.2.3h2.6v2h-3v-2Zm8.7 3.8c0 .2-.3.2-.4.2H1c-.1 0-.3 0-.3-.2v-.9c0-.2.2-.2.3-.2h14c.2 0 .3 0 .3.2v.9Z" fill="#777"/></svg>