<svg viewBox="0 0 18 18" fill="none" xmlns="http://www.w3.org/2000/svg"><path d="M17.8 8 10.3.7a1.9 1.9 0 0 0-2.6 0L.2 8a.5.5 0 0 0 0 .7l.5.6c.6.6 1.4.7 2.1.5v7.6c0 .3.3.5.6.5h11.2c.3 0 .6-.2.6-.5V9.9c.7.2 1.5 0 2-.5l.6-.6a.5.5 0 0 0 0-.7Zm-3.7 1.2v5.5h-2.3v-3.4a2.8 2.8 0 1 0-5.6 0v3.4H4V9.2L9 4.1l5.1 5.1ZM4 15.7h2.3V17H4v-1.2ZM7.3 17v-5.6a1.7 1.7 0 1 1 3.4 0v5.6H7.3Zm4.5 0v-1.2H14V17h-2.3Zm4.7-8.3a1 1 0 0 1-1.5 0L9.4 3a.5.5 0 0 0-.8 0L3 8.6a1 1 0 0 1-1.5 0l-.2-.2 7.1-7.1c.3-.3.9-.3 1.2 0l7.1 7.1-.2.2Z" fill="#777"/></svg>