<svg width="57" height="79" fill="none" xmlns="http://www.w3.org/2000/svg"><g filter="url(#a)"><path d="m35.592 38.04-14.182-.008-2.77 20.047A1.69 1.69 0 0 0 20.313 60h16.376a1.69 1.69 0 0 0 1.672-1.921l-2.768-20.04Z" fill="#FF7236"/><path d="M20.97 41.212a15.908 15.908 0 0 0 7.53 1.89c2.721 0 5.283-.687 7.53-1.89l-.438-3.172-14.183-.008-.439 3.18Z" fill="#FFAA50"/><path d="m34.406 16.91 5.549-5.556c.754-.756 2.045-.22 2.045.848V27.05c0-4.816-3.808-7.745-7.594-10.14Z" fill="#FF7236"/><path d="M42 27.049c0 7.466-6.044 13.518-13.5 13.518S15 34.515 15 27.05c0-7.466 6.044-12.674 13.5-12.674S42 19.583 42 27.05Z" fill="#FFAA50"/><path d="M22.594 27.049c0-6.507 3.73-11.295 8.7-12.42a15.442 15.442 0 0 0-2.794-.254c-2.484 0-4.804.59-6.803 1.636l-4.652-4.657c-.754-.756-2.045-.22-2.045.848V27.05c0-.305 0-.303 0 0 0 7.466 6.044 13.518 13.5 13.518.958 0 1.892-.103 2.793-.293-4.968-1.289-8.7-6.719-8.7-13.225Z" fill="#FF7236"/><path d="M25.547 35.498c1.63 0 2.953-1.135 2.953-2.535 0-1.4-1.322-2.535-2.953-2.535-1.631 0-2.953 1.135-2.953 2.535 0 1.4 1.322 2.535 2.953 2.535ZM31.453 35.498c1.631 0 2.953-1.135 2.953-2.535 0-1.4-1.322-2.535-2.953-2.535-1.63 0-2.953 1.135-2.953 2.535 0 1.4 1.322 2.535 2.953 2.535Z" fill="#FFFDFB"/><path d="M28.5 32.964c.932 0 1.688-.757 1.688-1.69a1.689 1.689 0 1 0-1.688 1.69Z" fill="#FF913C"/><path d="M34.403 50.636a.835.835 0 0 0-.91-.772.844.844 0 0 0-.77.912l.159 1.92a4.4 4.4 0 0 1-4.382 4.77 4.4 4.4 0 0 1-4.382-4.77l.16-1.92a.844.844 0 1 0-1.68-.14L21.817 60h13.364l-.779-9.364Z" fill="#FFAA50"/><path d="M23.438 27.893a.844.844 0 0 1-.844-.844v-.845a.844.844 0 1 1 1.687 0v.845a.844.844 0 0 1-.843.845ZM33.563 27.893a.844.844 0 0 1-.844-.844v-.845a.844.844 0 1 1 1.687 0v.845a.844.844 0 0 1-.843.845Z" fill="#1A212F"/></g><defs><filter id="a" x="0" y="0" width="57" height="79" filterUnits="userSpaceOnUse" color-interpolation-filters="sRGB"><feFlood flood-opacity="0" result="BackgroundImageFix"/><feColorMatrix in="SourceAlpha" values="0 0 0 0 0 0 0 0 0 0 0 0 0 0 0 0 0 0 127 0" result="hardAlpha"/><feOffset dy="4"/><feGaussianBlur stdDeviation="7.5"/><feColorMatrix values="0 0 0 0 0.575 0 0 0 0 0.575 0 0 0 0 0.575 0 0 0 0.25 0"/><feBlend in2="BackgroundImageFix" result="effect1_dropShadow"/><feBlend in="SourceGraphic" in2="effect1_dropShadow" result="shape"/></filter></defs></svg>