<svg width="700" height="504" viewBox="0 0 700 504" fill="none" xmlns="http://www.w3.org/2000/svg">
<path d="M537.347 -119.524C582.924 -36.9802 555.06 94.7931 581.844 202.801C608.629 310.808 690.062 394.837 699.134 483.323C708.207 571.596 644.917 664.113 558.516 733.926C472.33 803.526 363.032 850.421 275.982 820.714C188.716 791.006 123.699 684.484 35.3533 615.521C-52.9924 546.345 -164.667 514.728 -218.236 443.006C-272.021 371.496 -267.917 260.093 -217.804 180.096C-167.691 100.098 -71.7848 51.5053 14.4009 -18.0948C100.803 -87.9071 177.268 -178.727 275.118 -207.373C372.968 -236.02 491.77 -202.28 537.347 -119.524Z" fill="url(#paint0_linear)"/>
<defs>
<linearGradient id="paint0_linear" x1="221.5" y1="-279.789" x2="221.5" y2="566.971" gradientUnits="userSpaceOnUse">
<stop stop-color="#FF9B53"/>
<stop offset="1" stop-color="#F8B653"/>
</linearGradient>
</defs>
</svg>
