<svg width="700" height="504" fill="none" xmlns="http://www.w3.org/2000/svg"><path d="M537.347-119.524c45.577 82.544 17.713 214.317 44.497 322.325 26.785 108.007 108.218 192.036 117.29 280.522 9.073 88.273-54.217 180.79-140.618 250.603-86.186 69.6-195.484 116.495-282.534 86.788-87.266-29.708-152.283-136.23-240.629-205.193-88.345-69.176-200.02-100.793-253.589-172.515-53.785-71.51-49.681-182.913.432-262.91 50.113-79.998 146.02-128.59 232.205-198.19 86.402-69.813 162.867-160.633 260.717-189.279 97.85-28.647 216.652 5.093 262.229 87.849Z" fill="url(#a)"/><defs><linearGradient id="a" x1="221.5" y1="-279.789" x2="221.5" y2="566.971" gradientUnits="userSpaceOnUse"><stop stop-color="#FF9B53"/><stop offset="1" stop-color="#F8B653"/></linearGradient></defs></svg>