<svg width="768" height="530" viewBox="0 0 768 530" fill="none" xmlns="http://www.w3.org/2000/svg">
<path d="M678.037 -499.503C758.202 -433.097 768.859 -291.899 835.45 -193.52C902.042 -95.1405 1024.5 -39.7914 1064.05 45.3071C1103.53 130.194 1060.03 244.619 982.15 344.476C904.453 444.045 792.375 529.048 681.157 529.853C569.686 530.733 459.005 447.206 333.422 409.303C207.77 371.189 67.2157 378.7 -18.7239 325.884C-104.846 273.356 -136.536 160.788 -104.301 63.4602C-72.066 -33.8676 23.8416 -115.88 101.538 -215.45C179.417 -315.307 238.833 -432.646 343.538 -495.44C448.243 -558.234 597.803 -566.121 678.037 -499.503Z" fill="url(#paint0_linear)"/>
<defs>
<linearGradient id="paint0_linear" x1="-77" y1="-153.907" x2="694.673" y2="528.518" gradientUnits="userSpaceOnUse">
<stop stop-color="#FEA653"/>
<stop offset="1" stop-color="#F8B653"/>
</linearGradient>
</defs>
</svg>
