<svg width="768" height="530" fill="none" xmlns="http://www.w3.org/2000/svg"><path d="M678.037-499.503c80.165 66.406 90.822 207.604 157.413 305.983 66.592 98.38 189.05 153.729 228.6 238.827 39.48 84.887-4.02 199.312-81.9 299.169-77.697 99.569-189.775 184.572-300.993 185.377-111.471.88-222.152-82.647-347.735-120.55C207.77 371.189 67.216 378.7-18.724 325.884-104.846 273.356-136.536 160.788-104.3 63.46c32.235-97.328 128.143-179.34 205.839-278.91 77.879-99.857 137.295-217.196 242-279.99 104.705-62.794 254.265-70.681 334.499-4.063Z" fill="url(#a)"/><defs><linearGradient id="a" x1="-77" y1="-153.907" x2="694.673" y2="528.518" gradientUnits="userSpaceOnUse"><stop stop-color="#FEA653"/><stop offset="1" stop-color="#F8B653"/></linearGradient></defs></svg>