<svg width="150" height="46" viewBox="0 0 150 46" fill="none" xmlns="http://www.w3.org/2000/svg">
<g opacity="0.15">
<path fill-rule="evenodd" clip-rule="evenodd" d="M114.927 15.8568C117.791 19.2176 117.153 27.9021 113.938 30.3059C112.149 25.3396 112.778 20.6262 114.927 15.8568ZM102.028 35.7074C99.3941 30.2327 100.557 14.6136 102.711 10.6206C106.95 16.1638 106.631 29.4172 102.028 35.7074ZM28.2048 13.3608C31.7764 13.3532 34.2893 15.8767 34.2918 19.4686C34.2943 23.0062 31.6626 25.6609 28.1924 25.6191C24.7148 25.5801 22.2488 23.0595 22.2266 19.5313C22.2018 15.872 24.6307 13.3684 28.2048 13.3608ZM88.5062 5.98611C95.5974 15.3559 94.0886 33.3084 87.5688 40.0625C87.8829 28.7119 88.1896 17.5287 88.5062 5.98611ZM47.7619 3.72495C56.4015 16.0298 54.0097 34.0184 46.8467 41.5395C48.7092 28.7338 48.2467 16.237 47.7619 3.72495ZM72.6269 42.1773C74.9593 29.306 75.0979 16.563 75.0657 3.42839C82.1297 13.1223 81.457 33.7751 72.6269 42.1773ZM60.1586 42.5394C61.378 29.4172 63.5892 16.312 61.0663 3.09951C69.9557 12.8276 68.7487 31.2982 60.1586 42.5394ZM139.53 23.8018C143.636 21.322 146.745 18.1027 148.82 14.0053C151.553 8.59611 149.463 5.12212 143.336 4.59178C140.057 4.30663 136.997 5.02708 134.254 6.6695C131.734 8.176 129.414 10.0104 127.022 11.7232C126.384 12.1804 125.812 12.7231 125.196 13.2145C122.718 15.1762 120.133 15.4462 117.193 14.0879C111.838 11.6158 106.5 9.04665 100.965 7.02022C89.2605 2.7374 77.0568 0.688178 64.5934 0.126447C45.6991 -0.730043 27.6334 2.77826 10.3518 10.2338C7.62364 11.4114 5.14532 13.166 2.59526 14.7257C1.98186 15.0983 1.49211 15.7066 1.04939 16.2807C-0.437133 18.1883 -0.380264 20.1567 1.45004 21.7478C15.442 33.9291 30.9527 43.18 49.9732 45.2549C68.4098 47.2623 86.3716 45.3262 103.53 38.0703C108.234 36.0848 112.748 33.6515 117.341 31.4075C118.8 30.6946 120.252 29.9627 121.664 29.1691C122.523 28.6853 122.909 28.9429 123.413 29.7099C124.811 31.8238 126.169 33.9946 127.826 35.9023C131.115 39.688 135.345 41.1384 140.341 39.9969C143.878 39.1918 145.441 36.7995 144.855 33.2989C144.224 29.554 142.174 26.5629 139.53 23.8018Z" fill="#FAB751"/>
<path fill-rule="evenodd" clip-rule="evenodd" d="M60.1588 42.5395C68.7489 31.2983 69.9559 12.8277 61.0665 3.09961C63.5894 16.3121 61.3782 29.4173 60.1588 42.5395Z" fill="white"/>
<path fill-rule="evenodd" clip-rule="evenodd" d="M72.6269 42.1773C81.4569 33.7752 82.1297 13.1224 75.0657 3.42847C75.0978 16.5631 74.9593 29.3061 72.6269 42.1773Z" fill="white"/>
<path fill-rule="evenodd" clip-rule="evenodd" d="M47.762 3.7251C48.2468 16.2372 48.7093 28.734 46.8468 41.5398C54.0098 34.0187 56.4015 16.03 47.762 3.7251Z" fill="white"/>
<path fill-rule="evenodd" clip-rule="evenodd" d="M88.5061 5.98633C88.1895 17.5288 87.8828 28.712 87.5687 40.0625C94.0885 33.3085 95.5973 15.356 88.5061 5.98633Z" fill="white"/>
<path fill-rule="evenodd" clip-rule="evenodd" d="M28.2049 13.3606C24.6309 13.3682 22.202 15.8718 22.2267 19.5311C22.249 23.0592 24.715 25.5799 28.1926 25.6189C31.6627 25.6607 34.2944 23.006 34.2919 19.4684C34.2895 15.8765 31.7765 13.353 28.2049 13.3606Z" fill="white"/>
<path fill-rule="evenodd" clip-rule="evenodd" d="M102.028 35.7076C106.631 29.4173 106.95 16.164 102.711 10.6208C100.557 14.6138 99.3942 30.2329 102.028 35.7076Z" fill="white"/>
<path fill-rule="evenodd" clip-rule="evenodd" d="M114.927 15.8564C112.775 20.6259 112.149 25.3393 113.938 30.3056C117.153 27.9018 117.791 19.2173 114.927 15.8564Z" fill="white"/>
</g>
</svg>
