<svg width="150" height="46" fill="none" xmlns="http://www.w3.org/2000/svg"><g opacity=".15" fill-rule="evenodd" clip-rule="evenodd"><path d="M114.927 15.857c2.864 3.36 2.226 12.045-.989 14.449-1.789-4.966-1.16-9.68.989-14.45Zm-12.899 19.85c-2.634-5.474-1.471-21.093.683-25.086 4.239 5.543 3.92 18.796-.683 25.086ZM28.205 13.361c3.571-.008 6.084 2.516 6.087 6.108.002 3.537-2.63 6.192-6.1 6.15-3.477-.039-5.943-2.56-5.965-6.088-.025-3.659 2.404-6.163 5.978-6.17Zm60.301-7.375c7.091 9.37 5.583 27.322-.937 34.077.314-11.351.62-22.534.937-34.077ZM47.762 3.725c8.64 12.305 6.248 30.293-.915 37.814 1.862-12.805 1.4-25.302.915-37.814Zm24.865 38.452c2.332-12.871 2.47-25.614 2.439-38.749 7.064 9.694 6.391 30.347-2.44 38.75Zm-12.468.362c1.219-13.122 3.43-26.227.907-39.44 8.89 9.729 7.683 28.2-.907 39.44Zm79.371-18.737c4.106-2.48 7.215-5.7 9.29-9.797 2.733-5.409.643-8.883-5.484-9.413-3.279-.285-6.339.435-9.082 2.078-2.52 1.506-4.84 3.34-7.232 5.053-.638.457-1.21 1-1.826 1.491-2.478 1.962-5.063 2.232-8.003.874-5.355-2.472-10.693-5.041-16.228-7.068C89.26 2.737 77.057.688 64.593.126 45.7-.73 27.633 2.778 10.352 10.234c-2.728 1.177-5.207 2.932-7.757 4.492-.613.372-1.103.98-1.546 1.555-1.486 1.907-1.43 3.876.401 5.467C15.442 33.929 30.953 43.18 49.973 45.255c18.437 2.007 36.399.071 53.557-7.185 4.704-1.985 9.218-4.419 13.811-6.663 1.459-.712 2.911-1.444 4.323-2.238.859-.484 1.245-.226 1.749.54 1.398 2.115 2.756 4.286 4.413 6.193 3.289 3.786 7.519 5.236 12.515 4.095 3.537-.805 5.1-3.197 4.514-6.698-.631-3.745-2.681-6.736-5.325-9.497Z" fill="#FAB751"/><path d="M60.159 42.54c8.59-11.242 9.797-29.712.907-39.44 2.523 13.212.312 26.317-.907 39.44ZM72.627 42.177c8.83-8.402 9.503-29.055 2.439-38.749.032 13.135-.107 25.878-2.44 38.75ZM47.762 3.725c.485 12.512.947 25.009-.915 37.815 7.163-7.521 9.554-25.51.915-37.815ZM88.506 5.986c-.317 11.543-.623 22.726-.937 34.076 6.52-6.753 8.028-24.706.937-34.076ZM28.205 13.36c-3.574.008-6.003 2.512-5.978 6.171.022 3.528 2.488 6.049 5.966 6.088 3.47.042 6.101-2.613 6.099-6.15-.003-3.593-2.516-6.116-6.087-6.108ZM102.028 35.708c4.603-6.29 4.922-19.544.683-25.087-2.154 3.993-3.317 19.612-.683 25.087ZM114.927 15.856c-2.152 4.77-2.778 9.483-.989 14.45 3.215-2.404 3.853-11.089.989-14.45Z" fill="#fff"/></g></svg>