<svg width="484" height="151" viewBox="0 0 484 151" fill="none" xmlns="http://www.w3.org/2000/svg"><g opacity=".1" fill-rule="evenodd" clip-rule="evenodd"><path d="M370.8 52c9.3 11 7.2 39.6-3.2 47.5a61.6 61.6 0 0 1 3.2-47.4Zm-41.6 65.2c-8.5-18-4.7-69.2 2.2-82.3 13.7 18.2 12.7 61.7-2.2 82.3ZM91 44c11.5 0 19.6 8.2 19.6 20 0 11.6-8.4 20.3-19.6 20.2-11.3-.1-19.2-8.4-19.3-20 0-12 7.8-20.2 19.3-20.2Zm194.6-24.3c22.9 30.8 18 89.7-3 112l3-112ZM154 12.2c27.9 40.4 20.2 99.5-3 124.2 6-42 4.6-83.1 3-124.2Zm80.2 126.3c7.6-42.3 8-84.1 8-127.2 22.7 31.8 20.5 99.6-8 127.2Zm-40.2 1.1c4-43 11-86 3-129.4 28.6 32 24.7 92.5-3 129.4Zm256.1-61.5a78.1 78.1 0 0 0 30-32.1c8.8-17.8 2-29.2-17.7-31a47.3 47.3 0 0 0-29.3 6.9c-8.1 5-15.6 11-23.3 16.6-2.1 1.5-4 3.3-6 4.9-8 6.4-16.3 7.3-25.8 2.8-17.2-8-34.5-16.5-52.3-23.2A384.6 384.6 0 0 0 208.4.4a386 386 0 0 0-175 33.2c-8.8 3.9-16.8 9.6-25 14.7a20 20 0 0 0-5 5.1c-4.8 6.3-4.6 12.8 1.3 18 45.1 40 95.2 70.3 156.5 77.2 59.5 6.5 117.5.2 172.9-23.6 15.1-6.5 29.7-14.5 44.5-21.9 4.7-2.3 9.4-4.7 14-7.3 2.7-1.6 4-.8 5.6 1.7 4.5 7 8.9 14 14.3 20.4a38.5 38.5 0 0 0 40.3 13.4c11.4-2.6 16.5-10.5 14.6-22a59.6 59.6 0 0 0-17.2-31.2Z" fill="#FAB751"/><path d="M194.1 139.6c27.7-36.9 31.6-97.5 3-129.4 8 43.3 1 86.4-3 129.4ZM234.3 138.5c28.5-27.6 30.7-95.4 8-127.2 0 43-.4 84.9-8 127.2ZM154.1 12.2c1.6 41.1 3 82.1-3 124.2 23.2-24.7 30.9-83.8 3-124.2ZM285.6 19.7l-3 111.8c21-22.2 25.9-81 3-111.8ZM91 43.9C79.5 43.9 71.6 52 71.7 64c0 11.6 8 19.9 19.3 20 11.2.1 19.7-8.6 19.6-20.2 0-11.8-8-20-19.6-20ZM329.2 117.2c14.9-20.6 15.9-64.1 2.2-82.3-7 13-10.7 64.3-2.2 82.3ZM370.8 52c-7 15.7-9 31.2-3.2 47.5 10.4-8 12.5-36.4 3.2-47.4Z" fill="#fff"/></g></svg>