<svg viewBox="0 0 53 35" fill="none" xmlns="http://www.w3.org/2000/svg">
<path d="M28.1588 18.617C31.4341 18.617 34.1139 22.0596 34.1139 22.9203C34.1139 23.7809 31.4341 26.6498 28.1588 26.6498C24.8835 26.6498 22.5015 22.9203 22.5015 22.9203C22.5015 22.9203 24.8835 18.617 28.1588 18.617Z" fill="#FFFDFB"/>
<path d="M18.9285 19.4777L22.5015 22.9203M22.5015 22.9203L18.9285 26.3629M22.5015 22.9203C22.5015 22.9203 24.8835 26.6498 28.1588 26.6498C31.4341 26.6498 34.1139 23.7809 34.1139 22.9203C34.1139 22.0596 31.4341 18.617 28.1588 18.617C24.8835 18.617 22.5015 22.9203 22.5015 22.9203Z" stroke="#FFFDFB" stroke-width="2" stroke-linecap="round" stroke-linejoin="round"/>
<path d="M13.4815 6.60669L13.4816 6.60668C13.9201 6.55697 14.267 6.25759 14.3744 5.87166C14.5911 5.09259 15.3441 4.52599 16.0631 4.18884C16.7979 3.84428 17.6813 3.65138 18.3625 3.76237L18.3628 3.76241C18.8001 3.83386 19.2281 3.63854 19.447 3.28998L19.4471 3.2898C19.8264 2.68619 20.4922 2.27744 21.1757 2.08298C21.8604 1.88818 22.6469 1.88427 23.3024 2.19343L23.3024 2.19344C23.6978 2.37993 24.1707 2.31238 24.4902 2.03109L24.4902 2.03107C25.0283 1.55728 25.7857 1.34741 26.4986 1.34703C27.2116 1.34664 27.97 1.55575 28.51 2.03104L28.51 2.03109C28.8294 2.31236 29.302 2.37998 29.6979 2.19338C30.3535 1.88428 31.2855 1.89393 32.086 2.07355C32.4981 2.16602 32.9059 2.30984 33.2601 2.50427C33.6099 2.69627 33.9373 2.95419 34.1482 3.28982L34.1482 3.28988C34.3672 3.63852 34.795 3.83352 35.2328 3.76243L13.4815 6.60669ZM13.4815 6.60669C13.326 6.62436 13.1848 6.70451 13.1116 6.74792C13.0148 6.8053 12.9078 6.87988 12.7976 6.96348C12.5758 7.13172 12.3127 7.35813 12.0454 7.61305C11.5197 8.11431 10.9275 8.7737 10.6049 9.36551L10.202 10.1048H11.044H41.9554H42.7979L42.3943 9.36528C42.0646 8.7611 41.6099 8.11617 41.2218 7.62276C41.0272 7.37531 40.8438 7.15889 40.6952 6.99962C40.6218 6.92101 40.5502 6.84905 40.4857 6.79267C40.4542 6.76507 40.4155 6.73336 40.373 6.70518L40.3712 6.70401C40.3457 6.68706 40.2479 6.62196 40.1139 6.6067L40.1137 6.60668C39.6754 6.55697 39.3284 6.25749 39.2213 5.87196L39.2213 5.87187M13.4815 6.60669L39.2213 5.87187M15.3379 6.13965L15.3378 6.13988C15.1209 6.91908 14.4486 7.4823 13.647 7.59366C13.6403 7.59729 13.6318 7.60203 13.6216 7.60811C13.5692 7.63914 13.4953 7.68941 13.402 7.76021C13.2166 7.90078 12.9823 8.10141 12.7355 8.33675C12.4826 8.5779 12.2297 8.84303 12.0094 9.10481H41.0638C40.8586 8.79828 40.6393 8.49967 40.4358 8.24094C40.2527 8.00811 40.088 7.81463 39.9641 7.68194C39.9242 7.63913 39.8911 7.60554 39.8651 7.5804C39.1009 7.44285 38.4668 6.89205 38.2578 6.13958C38.1637 5.80125 37.7558 5.40284 37.1152 5.09898C36.491 4.80287 35.8175 4.68008 35.3943 4.74931L35.3939 4.74937C34.5743 4.88277 33.7423 4.5237 33.3015 3.82183C33.2121 3.67962 33.0406 3.52453 32.7789 3.38088C32.5217 3.23967 32.2054 3.1252 31.8671 3.04928C31.1666 2.89211 30.492 2.92452 30.1243 3.09792L30.1242 3.09794C29.3726 3.45222 28.472 3.32996 27.8492 2.78165L15.3379 6.13965ZM15.3379 6.13965C15.4343 5.7927 15.846 5.39513 16.4877 5.09424M15.3379 6.13965L16.4877 5.09424M39.2213 5.87187C39.0076 5.10314 38.2604 4.5354 37.5438 4.19548M39.2213 5.87187L37.5438 4.19548M16.4877 5.09424C17.1135 4.80078 17.7865 4.68179 18.2015 4.74932L16.4877 5.09424ZM37.5438 4.19548C36.8109 3.84781 35.9254 3.64919 35.233 3.76239L37.5438 4.19548ZM3.34194 10.8874L0.0156993 33.2945C-0.0481892 33.7233 0.0848443 34.1575 0.379621 34.4848C0.674397 34.8121 1.10261 35 1.55266 35H51.4471C51.8972 35 52.325 34.8121 52.6201 34.4848C52.9149 34.1575 53.048 33.7233 52.9845 33.2945M3.34194 10.8874L40.1959 5.49252C40.5072 5.59213 43.3296 6.50892 44.0462 9.60442H48.1209C48.8936 9.60442 49.5486 10.1515 49.6578 10.8874L52.9845 33.2945M3.34194 10.8874C3.45112 10.1515 4.10618 9.60442 4.8789 9.60442H8.95321L3.34194 10.8874ZM52.9845 33.2945L52.4899 33.3679C52.5311 33.6462 52.4456 33.9313 52.2489 34.1499C52.0507 34.3696 51.759 34.5 51.4471 34.5H1.55266C1.24061 34.5 0.948656 34.3695 0.751128 34.1502C0.554184 33.9315 0.468802 33.6463 0.51024 33.3681L0.510279 33.3679L3.83652 10.9608L3.83653 10.9608C3.90727 10.4839 4.33967 10.1044 4.8789 10.1044H8.95321H9.35076L9.44035 9.71709C10.0891 6.91213 12.6555 6.06511 12.9557 5.96918L13.1525 5.90629L13.2475 5.72283C14.636 3.04155 17.51 2.90672 17.8287 2.89595L18.0314 2.8891L18.1721 2.74301C19.87 0.979354 22.1699 0.961438 23.403 1.26635L23.5976 1.31448L23.7716 1.2148C25.922 -0.0174231 28.1355 0.58879 29.2282 1.21482L29.4022 1.31449L29.5968 1.26634C30.8295 0.961442 33.129 0.978969 34.8273 2.74301L34.968 2.88918L35.1708 2.89596C35.4927 2.90672 38.3626 3.04144 39.7519 5.72256L39.8469 5.90584L40.0435 5.96874C40.3392 6.06334 42.9084 6.9062 43.559 9.71717L43.6487 10.1044H44.0462H48.1209C48.6601 10.1044 49.0925 10.4839 49.1632 10.9608L49.1632 10.9608L52.4899 33.3677L52.9845 33.2945ZM13.6677 7.5833C13.6677 7.58331 13.6672 7.58354 13.6662 7.58394L13.6677 7.5833ZM18.2017 4.74936C19.0218 4.88327 19.8537 4.52291 20.2939 3.82168C20.5066 3.48329 20.9311 3.19227 21.4494 3.04481C21.9665 2.89767 22.4934 2.91753 22.8759 3.09789C23.6272 3.45228 24.5283 3.32993 25.151 2.7816C25.4584 2.511 25.9562 2.34732 26.4991 2.34703C27.042 2.34673 27.5403 2.5098 27.8492 2.7816L18.2017 4.74936ZM1.06192 33.6576L0.974398 34.2328H1.55623H51.4435H52.0254L51.9378 33.6576L48.4593 10.7964L48.3946 10.3716H47.965H5.03481H4.60513L4.5405 10.7964L1.06192 33.6576Z" fill="#FFFDFB" stroke="#FFFDFB" stroke-width="0.999999"/>
</svg>
