<svg viewBox="0 0 53 35" fill="none" xmlns="http://www.w3.org/2000/svg"><path d="M28.2 18.6c3.2 0 6 3.5 6 4.3 0 .9-2.8 3.7-6 3.7-3.3 0-5.7-3.7-5.7-3.7s2.4-4.3 5.7-4.3Z" fill="#FFFDFB"/><path d="m19 19.5 3.5 3.4m0 0-3.6 3.5m3.6-3.5s2.4 3.7 5.7 3.7c3.2 0 6-2.8 6-3.7 0-.8-2.8-4.3-6-4.3-3.3 0-5.7 4.3-5.7 4.3Z" stroke="#FFFDFB" stroke-width="2" stroke-linecap="round" stroke-linejoin="round"/><path d="M13.5 6.6c.4 0 .8-.3.9-.7.2-.8 1-1.4 1.7-1.7.7-.4 1.6-.5 2.3-.4a1 1 0 0 0 1-.5c.4-.6 1-1 1.8-1.2a3 3 0 0 1 2.1 0c.4.3.9.2 1.2 0a3 3 0 0 1 2-.8 3 3 0 0 1 2 .7c.3.3.8.4 1.2.2a4 4 0 0 1 2.4-.1c.4 0 .8.2 1.2.4l.8.8c.3.3.7.5 1.1.5L13.5 6.6Zm0 0a1 1 0 0 0-.4.1l-.3.3a9.1 9.1 0 0 0-2.2 2.4l-.4.7h32.6l-.4-.7a13.3 13.3 0 0 0-2-2.7H40a1 1 0 0 1-.9-.8m-25.7.7L39.2 6M15.3 6a2 2 0 0 1-1.7 1.5l-.2.2A8.2 8.2 0 0 0 12 9h29A14.2 14.2 0 0 0 40 7.6 2 2 0 0 1 38.3 6c-.1-.3-.5-.7-1.2-1-.6-.3-1.3-.4-1.7-.4a2 2 0 0 1-2.1-.9l-.5-.4-1-.4a3 3 0 0 0-1.7.1c-.7.4-1.6.2-2.3-.3L15.3 6Zm0 0c.1-.3.5-.7 1.2-1m-1.2 1 1.2-1m22.7.8c-.2-.8-1-1.4-1.7-1.7m1.7 1.7-1.7-1.7m-21 .9c.6-.3 1.3-.4 1.7-.4l-1.7.4Zm21-.9c-.7-.4-1.6-.6-2.3-.4l2.3.4ZM3.3 10.9 0 33.3c0 .4 0 .9.4 1.2.3.3.7.5 1.2.5h49.8c.5 0 1-.2 1.2-.5.3-.3.4-.8.4-1.2M3.3 10.9l36.9-5.4c.3 0 3.1 1 3.8 4.1h4.1c.8 0 1.4.6 1.6 1.3L53 33.3M3.3 10.9c.2-.7.8-1.3 1.6-1.3h4l-5.6 1.3ZM53 33.3h-.5c0 .3 0 .6-.3.8a1 1 0 0 1-.8.4H1.6a1 1 0 0 1-.8-.3 1 1 0 0 1-.3-.8L3.8 11c.1-.5.5-.9 1-.9H9.5v-.4A5.3 5.3 0 0 1 13 6h.2v-.3A5.5 5.5 0 0 1 17.8 3h.2l.2-.2c1.7-1.7 4-1.7 5.2-1.4h.4a5.6 5.6 0 0 1 5.4 0h.4c1.2-.3 3.5-.3 5.2 1.4l.2.2h.2c.3 0 3.2.1 4.6 2.8V6h.2c.3.2 3 1 3.6 3.8v.4h4.5c.6 0 1 .4 1 .9l3.4 22.4.5-.1ZM13.7 7.6Zm4.5-2.9a2 2 0 0 0 2-.9 2 2 0 0 1 1.2-.8c.6-.1 1 0 1.5.1.7.4 1.6.2 2.3-.3a2 2 0 0 1 1.3-.5c.5 0 1 .2 1.3.5l-9.6 2Zm-17.1 29-.1.5h51v-.5l-3.5-22.9-.1-.4H4.6v.4L1 33.7Z" fill="#FFFDFB" stroke="#FFFDFB"/></svg>