<svg width="36" height="24" fill="none" xmlns="http://www.w3.org/2000/svg"><path d="M19 12.7c2.3 0 4 2.3 4 2.9 0 .5-1.7 2.4-4 2.4-2 0-3.6-2.4-3.6-2.4s1.5-2.9 3.7-2.9Z" fill="#FFFDFB"/><path d="m13 13.3 2.4 2.3m0 0L13 17.8m2.4-2.2S16.9 18 19 18s4-1.9 4-2.4c0-.6-1.8-2.9-4-2.9s-3.7 2.9-3.7 2.9Z" stroke="#FFFDFB" stroke-width="2" stroke-linecap="round" stroke-linejoin="round"/><path d="M6.9 7.1H7l.3-.5A5.5 5.5 0 0 1 9 4.8l.3-.2c.2 0 .4-.1.4-.3.2-.6.8-1 1.2-1.2a3 3 0 0 1 1.7-.3c.2 0 .4 0 .5-.3.3-.4.8-.7 1.2-.8.5-.2 1-.2 1.6 0h.6c.4-.4.9-.5 1.4-.5.5 0 1 .1 1.4.5h.6L7 7.2Zm0 0V7c.4-1.7 2-2.3 2.2-2.3l.2-.1.1-.2a3.4 3.4 0 0 1 2.9-1.8h.2l.1-.1c1-1.1 2.5-1.1 3.3-1l.2.1h.2c1.3-.9 2.7-.5 3.4 0h.4c.8-.2 2.2-.2 3.3.9l.1.1h.2c.2 0 1.2.1 2.1.8m-19 3.8 19-3.8m0 0-.4-.2a3 3 0 0 0-1.7-.3c-.2 0-.4 0-.5-.3l-.7-.5c-.2-.2-.5-.3-.8-.3-.5-.2-1.2-.2-1.7 0l5.8 1.6Zm-15 1.3c-.2.5-.6 1-1.2 1l-.1.1a5.2 5.2 0 0 0-.7.6h18.5a9.4 9.4 0 0 0-.6-.7c-.5-.1-1-.5-1.1-1 0-.2-.3-.4-.7-.6a2 2 0 0 0-1-.2c-.6 0-1.2-.2-1.6-.7 0 0 0-.2-.2-.3l-.6-.2h-1c-.6.3-1.3.2-1.7-.2l-.8-.2c-.3 0-.6 0-.8.2-.4.4-1.1.5-1.7.3l-4.7 1.9Zm0 0c0-.2.3-.4.7-.6m-.7.6.7-.6m0 0a2 2 0 0 1 1-.2m-1 .2 1-.2m0 0c.6 0 1.2-.2 1.6-.7m-1.6.7v-.5l1.6-.2m0 0c0-.2.3-.4.6-.5m-.6.5.6-.5m0 0h.8-.8Zm18 5.1L35 22.5v.2L32.5 7.5v-.2l.2.3Zm-31.6 15v-.2L3.1 7.7s0-.2.2-.3v.2L1 22.6ZM29 7H29l-.3-.5a9 9 0 0 0-1.4-1.9H27a.5.5 0 0 1-.4-.4v-.1V4.5h.3c.2.1 1.8.7 2.2 2.4v.2ZM9.6 5.6Z" fill="#FFFDFB" stroke="#FFFDFB"/></svg>