<svg width="46" height="38" viewBox="0 0 46 38" fill="none" xmlns="http://www.w3.org/2000/svg">
<path d="M5.76782 35.4295C5.70896 34.7191 5.2852 34.0206 4.11987 33.9614C4.8379 33.8667 5.82667 32.2091 5.40291 30.9778C5.04978 29.9832 3.99039 30.374 3.36652 30.5634C3.24881 31.5106 3.51955 33.251 2.47192 33.4759C2.42484 32.9787 2.51901 32.1499 2.38952 31.2856C2.14233 29.853 0.400216 30.516 0 30.6936C0.153024 32.2801 0.129482 32.7064 0.129482 34.6126C0.141253 35.2637 0.0706263 36.2938 0.129482 36.8503C0.294276 38.3302 2.04816 37.9395 2.53078 37.4304C2.53078 36.8029 2.51901 35.5242 2.48369 34.8138C3.26058 34.7546 3.40183 34.9796 3.42538 36.6371C3.43715 38.2947 5.39114 37.9869 5.96793 37.4186C5.76782 36.8029 5.82667 36.0215 5.76782 35.4295Z" fill="#1A212F"/>
<path d="M6.78905 34.21C6.78905 37.6435 8.55471 37.9277 9.79067 37.8921C10.9325 37.8921 12.8041 37.5725 12.8158 34.21C12.8041 31.333 11.5328 30.3148 9.82598 30.3148C8.02501 30.3148 6.78905 31.4277 6.78905 34.21ZM9.82598 32.2446C9.95546 32.2446 10.4498 32.0552 10.4498 34.1271C10.4498 35.4769 10.238 36.2464 9.81421 36.2464C9.46108 36.2464 9.17857 35.9268 9.21389 34.1271C9.21389 32.4933 9.62587 32.2446 9.82598 32.2446Z" fill="#1A212F"/>
<path d="M15.2378 32.4933C15.2378 33.1681 15.226 33.914 15.2614 36.2109C15.2731 37.1344 15.3084 37.8921 16.3678 37.8685C17.3095 37.8685 17.5449 37.4896 17.6509 37.3712C17.6862 36.3411 17.6156 34.0916 17.592 32.5288C17.851 32.5288 18.0982 32.5288 18.3218 32.5169C19.0752 32.4933 19.3341 32.0433 19.3224 31.4158C19.3106 30.7055 18.7338 30.3266 17.9334 30.3266H15.6969C13.9195 30.3384 13.8017 30.3384 13.6605 30.3266C13.3309 31.7237 13.531 32.4696 14.8847 32.4933H15.2378Z" fill="#1A212F"/>
<path d="M24.1709 30.374C23.347 30.2911 21.3577 30.3266 19.9804 30.3858C20.1335 31.9605 20.1452 33.9851 20.1217 35.4177C20.1452 36.7911 20.0275 37.7501 21.4636 37.8448C22.4053 37.9158 22.935 37.9158 23.7825 37.8448C24.9361 37.7501 25.4069 37.1226 24.8537 35.7492C23.9002 35.8912 23.0174 35.9268 22.4641 35.8202C22.4641 35.6544 22.4406 35.1335 22.4641 35.0033C22.9938 35.0033 23.5706 34.9796 24.0768 34.9796C25.1244 34.9796 25.0185 33.2865 24.065 33.2865C23.3823 33.251 23.0762 33.322 22.4406 33.2628V32.3275C23.1586 32.2683 23.4764 32.3038 24.0768 32.3275C25.2068 32.363 25.2068 30.6107 24.1709 30.374Z" fill="#1A212F"/>
<path d="M27.8479 27.7929C27.071 28.302 27.1181 29.0716 27.6714 29.5333C28.2952 29.9832 29.5194 29.8412 30.3434 29.4741C31.0967 29.1308 31.391 28.3494 30.5906 27.7692C29.4017 28.3967 28.613 28.0771 27.8479 27.7929ZM32.0384 31.3803C32.0384 30.6699 31.5911 30.3266 30.8849 30.3266C30.0609 30.3266 29.6371 30.5397 29.3899 31.2974C29.0957 32.2209 28.6601 33.6417 28.4129 34.6244C28.4129 34.1982 28.4836 31.6882 28.4836 31.3803C28.4836 30.5989 28.0716 30.3266 27.3771 30.3266C26.8945 30.3266 26.0352 30.6344 26.0352 30.6344C26.1058 31.1672 26.1647 31.475 26.1764 32.1736C26.2 32.9076 26.1764 34.0798 26.2471 36.4003C26.2824 37.537 26.6473 37.9158 27.5654 37.8803C29.2134 37.8211 29.3193 34.7665 29.7666 33.6535C29.7666 34.1626 29.7431 35.9268 29.7431 36.5187C29.7431 37.3238 29.8137 37.8803 30.7436 37.8803C31.544 37.8803 32.0031 37.608 32.1444 37.3594C32.0502 37.0042 32.0149 34.8493 32.0149 33.1563C32.0149 32.4104 32.0266 31.7592 32.0384 31.3803Z" fill="#1A212F"/>
<path d="M38.8578 35.4295C38.799 34.7191 38.3752 34.0206 37.2099 33.9614C37.9279 33.8667 38.9167 32.2091 38.4929 30.9778C38.1398 29.9832 37.0804 30.374 36.4565 30.5634C36.3388 31.5106 36.6095 33.251 35.5619 33.4759C35.5148 32.9787 35.609 32.1499 35.4795 31.2856C35.2323 29.853 33.4902 30.516 33.09 30.6936C33.243 32.2801 33.2195 32.7064 33.2195 34.6126C33.2313 35.2637 33.1606 36.2938 33.2195 36.8503C33.3843 38.3302 35.1382 37.9395 35.6208 37.4304C35.6208 36.8029 35.609 35.5242 35.5737 34.8138C36.3506 34.7546 36.4918 34.9796 36.5154 36.6371C36.5271 38.2947 38.4811 37.9869 39.0579 37.4186C38.8578 36.8029 38.9167 36.0215 38.8578 35.4295Z" fill="#1A212F"/>
<path d="M46 37.3712C45.8352 36.9094 45.847 36.6845 45.8117 36.0215C45.7175 34.2929 45.694 32.6235 45.1289 31.475C44.1755 29.782 41.7153 30.2437 40.5265 31.0962C40.4205 33.1444 40.0674 33.9851 39.8437 36.2701C39.6789 37.9395 41.0679 38.4012 42.3627 37.5843C42.3627 37.383 42.3627 36.6845 42.4216 36.5187C42.5746 36.5187 43.1514 36.5306 43.3751 36.5306C43.3751 36.5306 43.3162 37.2173 43.6458 37.5843C44.2343 38.2592 45.588 38.0579 46 37.3712ZM42.504 35.0388C42.5864 34.3994 42.5864 33.0734 42.6217 32.7892C42.6806 32.7419 43.0808 32.7656 43.1279 32.8248C43.2691 33.3812 43.2691 34.3994 43.3044 35.0388H42.504Z" fill="#1A212F"/>
<path d="M28.4761 5.11195L33.2775 0.306021C33.9306 -0.347712 35.0475 0.11529 35.0475 1.03989V13.882C35.0474 9.71656 31.7522 7.18325 28.4761 5.11195Z" fill="#FF7236"/>
<path d="M35.0475 13.8822C35.0475 20.3403 29.8171 25.5755 23.3651 25.5755C16.9131 25.5755 11.6826 20.3402 11.6826 13.8822C11.6826 7.42414 16.913 2.91962 23.3651 2.91962C29.8172 2.91962 35.0475 7.42406 35.0475 13.8822Z" fill="#FFAA50"/>
<path d="M18.2539 13.882C18.2539 8.2538 21.4825 4.11194 25.7821 3.13975C25.0018 2.99645 24.194 2.91946 23.365 2.91946C21.2152 2.91946 19.2077 3.42899 17.4775 4.33479L13.4524 0.306021C12.7993 -0.347712 11.6825 0.11529 11.6825 1.03989V13.882C11.6825 13.6184 11.6825 13.6198 11.6825 13.882C11.6825 20.3401 16.9129 25.5754 23.3649 25.5754C24.194 25.5754 25.0018 25.486 25.782 25.3217C21.4825 24.2069 18.2539 19.5101 18.2539 13.882Z" fill="#FF7236"/>
<path d="M20.8094 21.1903C22.2208 21.1903 23.3649 20.2087 23.3649 18.9979C23.3649 17.787 22.2208 16.8054 20.8094 16.8054C19.398 16.8054 18.2539 17.787 18.2539 18.9979C18.2539 20.2087 19.398 21.1903 20.8094 21.1903Z" fill="#FFFDFB"/>
<path d="M25.9207 21.1904C27.3321 21.1904 28.4762 20.2088 28.4762 18.9979C28.4762 17.787 27.3321 16.8054 25.9207 16.8054C24.5094 16.8054 23.3652 17.787 23.3652 18.9979C23.3652 20.2088 24.5094 21.1904 25.9207 21.1904Z" fill="#FFFDFB"/>
<path d="M23.3652 18.9983C24.1717 18.9983 24.8255 18.3439 24.8255 17.5367C24.8255 16.7294 24.1717 16.075 23.3652 16.075C22.5586 16.075 21.9048 16.7294 21.9048 17.5367C21.9048 18.3439 22.5586 18.9983 23.3652 18.9983Z" fill="#FF913C"/>
<path d="M18.9842 14.6128C18.5806 14.6128 18.2541 14.2856 18.2541 13.882V13.1512C18.2541 12.7476 18.5807 12.4204 18.9842 12.4204C19.3877 12.4204 19.7143 12.7476 19.7143 13.1512V13.882C19.7143 14.2856 19.3877 14.6128 18.9842 14.6128Z" fill="#1A212F"/>
<path d="M27.7459 14.6128C27.3423 14.6128 27.0158 14.2856 27.0158 13.882V13.1512C27.0158 12.7476 27.3424 12.4204 27.7459 12.4204C28.1495 12.4204 28.4761 12.7476 28.4761 13.1512V13.882C28.4761 14.2856 28.1495 14.6128 27.7459 14.6128Z" fill="#1A212F"/>
</svg>
