<svg fill="none" xmlns="http://www.w3.org/2000/svg"><path d="M7.9 48.5c0-1-.7-2-2.3-2 1-.2 2.4-2.4 1.8-4.1-.5-1.4-2-.8-2.8-.6-.2 1.3.2 3.7-1.2 4l-.1-3c-.4-2-2.8-1-3.3-.8.2 2.2.2 2.8.2 5.4v3c.2 2 2.6 1.5 3.3.8l-.1-3.6c1 0 1.3.3 1.3 2.5 0 2.3 2.7 1.9 3.5 1.1-.3-.8-.2-2-.3-2.7ZM9.3 46.8c0 4.7 2.4 5.1 4.1 5 1.6 0 4.1-.4 4.2-5 0-4-1.8-5.3-4.1-5.3-2.5 0-4.2 1.5-4.2 5.3Zm4.2-2.7c.1 0 .8-.2.8 2.6 0 1.8-.3 2.9-.9 2.9-.4 0-.8-.4-.8-2.9 0-2.2.6-2.6.9-2.6ZM20.9 44.5v5c0 1.3 0 2.4 1.5 2.3 1.3 0 1.6-.5 1.8-.7l-.1-6.6h1c1 0 1.4-.7 1.4-1.5 0-1-.8-1.5-2-1.5h-3a51 51 0 0 1-2.8 0c-.4 2-.2 3 1.7 3h.5ZM33.1 41.6h-5.7c.2 2.1.2 5 .2 6.9 0 1.8-.2 3.2 1.8 3.3h3.2c1.6-.1 2.2-1 1.4-2.9a11 11 0 0 1-3.2.1V48H33c1.4 0 1.3-2.4 0-2.4h-2.3v-1.3H33c1.5 0 1.5-2.3.1-2.6ZM38.1 38c-1 .7-1 1.8-.2 2.4.9.6 2.5.4 3.7 0 1-.5 1.4-1.6.3-2.4-1.6.9-2.7.4-3.8 0Zm5.8 5c0-1-.6-1.5-1.6-1.5-1.1 0-1.7.3-2 1.3l-1.4 4.6.1-4.5c0-1-.6-1.4-1.5-1.4-.7 0-1.8.4-1.8.4l.2 2.1v5.8c.1 1.6.6 2 1.9 2 2.2 0 2.4-4.2 3-5.7V50c0 1 0 1.8 1.3 1.8 1.1 0 1.7-.3 2-.7a56.2 56.2 0 0 1-.2-8.2ZM53.2 48.5c0-1-.6-2-2.2-2 1-.2 2.3-2.4 1.7-4.1-.5-1.4-2-.8-2.8-.6-.1 1.3.2 3.7-1.2 4l-.1-3c-.3-2-2.7-1-3.3-.8.2 2.2.2 2.8.2 5.4v3c.2 2 2.6 1.5 3.3.8v-3.6c1 0 1.2.3 1.2 2.5 0 2.3 2.7 1.9 3.5 1.1-.3-.8-.2-2-.3-2.7ZM63 51.1l-.3-1.8c0-2.4-.1-4.7-.9-6.2-1.3-2.3-4.7-1.7-6.3-.5-.1 2.8-.6 4-1 7-.2 2.3 1.7 3 3.5 1.8l.1-1.4h1.3s0 1 .4 1.4c.8 1 2.6.7 3.2-.3ZM58.2 48l.2-3h.7c.2.8.2 2.2.2 3h-1Z" fill="#1A212F"/><path d="M39 7 45.6.4c.9-.9 2.4-.2 2.4 1V19c0-5.7-4.5-9.2-9-12Z" fill="#FF7236"/><path d="M48 19a16 16 0 1 1-32 0c0-8.8 7.2-15 16-15s16 6.2 16 15Z" fill="#FFAA50"/><path d="M25 19c0-7.7 4.4-13.4 10.3-14.7A18.3 18.3 0 0 0 24 5.9L18.4.4c-.9-.9-2.4-.2-2.4 1V19c0-.4 0-.4 0 0a16 16 0 0 0 19.3 15.7C29.4 33 25 26.7 25 19Z" fill="#FF7236"/><path d="M28.5 29c2 0 3.5-1.3 3.5-3s-1.6-3-3.5-3c-2 0-3.5 1.3-3.5 3s1.6 3 3.5 3ZM35.5 29c2 0 3.5-1.3 3.5-3s-1.6-3-3.5-3c-2 0-3.5 1.3-3.5 3s1.6 3 3.5 3Z" fill="#FFFDFB"/><path d="M32 26a2 2 0 1 0 0-4 2 2 0 0 0 0 4Z" fill="#FF913C"/><path d="M26 20a1 1 0 0 1-1-1v-1a1 1 0 1 1 2 0v1c0 .5-.4 1-1 1ZM38 20a1 1 0 0 1-1-1v-1a1 1 0 1 1 2 0v1c0 .5-.4 1-1 1Z" fill="#1A212F"/></svg>