<svg viewBox="0 0 252 216" fill="none" xmlns="http://www.w3.org/2000/svg"><path d="M201 137.3c-35.3-20.3-29.3-79.6 9.1-79.6 16.6 0 31 12.5 37.3 28.4 14.8 36.8-15.9 68.7-46.3 51.2ZM164.7 130c42.5 0 55.2 72.1 14.9 84-18.4 5.4-39.4-7.6-46-31.3-7.6-26.5 7.2-52.7 31.1-52.7Z" fill="#FAC663" fill-opacity=".1"/><path d="M153.8 1.6c-6 1.6-16.4 2.6-27.4 2.8-11.6.2-23.7-.7-31.6-2.8-21.2-6-50 8.3-43.7 38C57 67 78 65.5 83 91.5c5 26.3 24.5 39 43.4 38 17.6-1 34.6-13.6 39.3-38 5-26 26-24.5 31.8-51.9 6.3-29.7-22.6-43.9-43.7-38ZM89.9 130c12 0 22.3 7 28 17.6C135 179.4 107 223.4 75 214c-40.4-12-27.6-84 14.9-84Z" fill="#FAC663" fill-opacity=".1"/><path d="M70.7 81.4C84.3 114.7 52 155.5 21 142.7-16.2 127.2.3 60.6 41 60.6c13.2 0 24.4 8 29.6 20.8Z" fill="#FAC663" fill-opacity=".1"/></svg>