<svg width="87" height="75" viewBox="0 0 87 75" fill="none" xmlns="http://www.w3.org/2000/svg"><path d="M69.4 47.7c-12.2-7-10.1-27.3 3-27.3 5.8 0 10.7 4.2 12.9 9.7 5 12.6-5.5 23.6-16 17.6ZM56.9 45.2c14.6 0 19 24.7 5.1 28.8-6.3 1.8-13.5-2.6-15.8-10.7-2.6-9.2 2.5-18.1 10.7-18.1Z" fill="#FFFEFD" fill-opacity=".2"/><path d="M53.2 1.1c-2 .6-5.7 1-9.4 1-4 0-8.2-.2-10.9-1-7.3-2-17.2 2.9-15 13 2 9.5 9.2 9 11 17.9 1.7 9 8.4 13.3 14.9 13 6-.3 11.8-4.7 13.4-13 1.7-9 9-8.4 11-17.8C70.2 4 60.3-1 53.1 1.2ZM31.2 45.2a11 11 0 0 1 9.7 6c5.8 11-3.8 26-14.8 22.8-13.9-4.1-9.5-28.8 5.1-28.8Z" fill="#FFFEFD" fill-opacity=".2"/><path d="M24.6 28.5c4.7 11.4-6.4 25.4-17 21-12.8-5.3-7.1-28.1 7-28.1a11 11 0 0 1 10 7Z" fill="#FFFEFD" fill-opacity=".2"/></svg>