<svg width="283" height="291" fill="none" xmlns="http://www.w3.org/2000/svg"><path d="M45.7 175c50.3-7.3 89.7 55.3 52 84.8-16.2 12.6-39.8 11.4-58.2.7-42.6-24.6-37-79.3 6.2-85.5ZM87 154.3C45.3 186.8-22.3 126 8.2 83.5c13.9-19.4 44.3-22.7 69-4.7C104.9 99 110.4 136 87 154.3Z" fill="#FAC663" fill-opacity=".1"/><path d="M195.9 271.6a155 155 0 0 1 24.6-23.7 156 156 0 0 1 33.1-21.4c25.3-10.5 42.6-46.5 13.7-70.7-26.7-22.4-46-4.7-70.8-26.4-25-21.8-53.8-19.3-71.6-3.9-16.5 14.3-23.5 39.8-9.4 67.2 15 29.3-6.8 43.8 8.5 75.1 16.5 34 55.6 25.7 71.9 3.8ZM160.3 97a39.7 39.7 0 0 1-41 4.3c-41-18-47.2-82.5-8.7-97.8 48.7-19.3 91.3 61 49.7 93.5Z" fill="#FAC663" fill-opacity=".1"/><path d="M216.3 130c-39-22.3-38.4-87 1.7-98 48.2-13.4 83.1 64.4 43 95.7a39.5 39.5 0 0 1-44.7 2.2Z" fill="#FAC663" fill-opacity=".1"/></svg>