<svg width="354" height="346" fill="none" xmlns="http://www.w3.org/2000/svg"><path d="M90.2 93.5c37.7 46.3-1.5 124-54 103.8-22.6-8.7-35.7-33.2-36-58.2-1-57.9 57.6-85.3 90-45.6ZM136 122.6C78 100.3 98.4-4.7 159.7.3c28 2.3 49.8 31 46.5 66.7-3.6 40.2-37.5 68.1-70.2 55.6Z" fill="#FAC663" fill-opacity=".1"/><path d="M83.8 303.4c8.9 1 23.7 5 38.8 10.5 15.9 5.9 32 13.3 41.6 20.4 25.9 19.2 72.7 14.8 79.6-29 6.4-40.4-23.2-49.3-16.3-87.4 6.9-38.4-13.1-66-39.5-74.5-24.4-8-54.3.4-73.4 31.2-20.4 32.9-48.2 19.7-70.6 54-24.2 37.2 7.9 71.7 39.8 74.8ZM238.2 161.8A46.7 46.7 0 0 1 209 123c-6.7-52.2 54.6-97.5 93.3-67.9 49 37.4-6.2 129-64.2 106.7Z" fill="#FAC663" fill-opacity=".1"/><path d="M239 238.2c-1.2-52.7 64.3-91.3 99.8-57.6 42.7 40.5-14.6 122.8-70.5 101.4-17.9-7-28.9-23.8-29.3-43.8Z" fill="#FAC663" fill-opacity=".1"/></svg>