<svg viewBox="0 0 313 267" fill="none" xmlns="http://www.w3.org/2000/svg"><path d="M62.5 96.8c44 25.2 36.5 98.8-11.3 98.8-20.6 0-38.4-15.5-46.3-35.2-18.4-45.7 19.8-85.3 57.6-63.6ZM107.7 105.9C55 105.9 39 16.3 89.2 1.6c23-6.7 49 9.4 57.3 38.8 9.4 33-9 65.5-38.8 65.5Z" fill="#FAC663" fill-opacity=".1"/><path d="M121.3 265.4a155 155 0 0 1 34-3.5 156 156 0 0 1 39.3 3.5c26.3 7.3 62.2-10.4 54.3-47.3-7.3-34-33.4-32.1-39.6-64.4-6.2-32.6-30.5-48.4-54-47.1-21.8 1.1-43 16.8-48.8 47.1-6.1 32.3-32.2 30.4-39.5 64.4-8 36.9 28 54.5 54.3 47.3ZM200.7 105.9c-15 0-27.8-8.7-35-22-21.1-39.4 13.7-94 53.5-82.3C269.5 16.4 253.5 106 200.7 106Z" fill="#FAC663" fill-opacity=".1"/><path d="M224.6 166.3c-17-41.5 23.3-92.1 61.7-76.2 46.2 19.2 25.8 102-25 102-16.4 0-30.3-10-36.7-25.8Z" fill="#FAC663" fill-opacity=".1"/></svg>