<svg viewBox="0 0 368 315" fill="none" xmlns="http://www.w3.org/2000/svg"><path d="M73.4 114.2c51.8 29.6 43 116.2-13.2 116.2-24.2 0-45.2-18.2-54.5-41.5-21.6-53.7 23.2-100.2 67.7-74.8ZM126.6 124.9C64.5 124.9 46 19.5 105 2.2c27-7.9 57.5 11 67.3 45.6 11 38.8-10.6 77-45.6 77Z" fill="#FAC663" fill-opacity=".1"/><path d="M142.6 312.4c8.6-2.4 24-3.9 40-4.1 17-.3 34.7 1 46.2 4.1 31 8.6 73.2-12.2 64-55.6-8.6-40-39.4-37.7-46.7-75.7-7.3-38.4-35.8-56.9-63.5-55.4C157 127 132 145.5 125.2 181c-7.2 38-38 35.7-46.5 75.7-9.3 43.4 33 64.2 64 55.6ZM236 124.9A46.7 46.7 0 0 1 195 99c-25-46.4 16-110.6 62.7-96.9C317 19.6 298.2 125 236 125Z" fill="#FAC663" fill-opacity=".1"/><path d="M264.1 195.9c-20-48.8 27.4-108.3 72.6-89.6 54.4 22.6 30.4 120-29.5 120a46.5 46.5 0 0 1-43-30.4Z" fill="#FAC663" fill-opacity=".1"/></svg>