<svg width="102" height="105" fill="none" xmlns="http://www.w3.org/2000/svg"><path d="M16.8 63.3c18-2.7 32 19.6 18.5 30.2-5.8 4.6-14.2 4.2-20.8.4C-.7 85 1.4 65.6 16.8 63.3ZM31.6 55.9c-15 11.6-39-10-28-25.2 5-7 15.8-8.2 24.7-1.8C38 36.1 40 49.3 31.6 56Z" fill="#FAC663" fill-opacity=".1"/><path d="M70.4 97.6c1.6-2.2 5-5.5 8.9-8.5 4-3.3 8.5-6.3 11.8-7.7 9.1-3.8 15.4-16.7 5-25.3-9.5-8-16.4-1.6-25.3-9.3-8.9-7.7-19.2-6.8-25.6-1.3-5.9 5.2-8.4 14.3-3.4 24C47 80 39.3 85.2 44.7 96.3c5.8 12.1 19.9 9.1 25.7 1.3ZM58 35.3A14.3 14.3 0 0 1 43.2 37c-14.7-6.4-16.8-29.4-3-35C57.8-5 73 23.7 58 35.4Z" fill="#FAC663" fill-opacity=".1"/><path d="M78 47c-14-8-13.7-31 .7-35C96 7 108.3 34.9 93.9 46a14.2 14.2 0 0 1-16 .9Z" fill="#FAC663" fill-opacity=".1"/></svg>