<svg width="113" height="110" fill="none" xmlns="http://www.w3.org/2000/svg"><path d="M29.3 29.8c11.9 14.6-.5 39-17 32.7C5 59.8.8 52.1.7 44.1.5 26 19 17.3 29.3 29.8ZM43.8 39C25.4 32 31.8-1.2 51.2.4c8.8.7 15.7 9.8 14.7 21C64.8 34.2 54.1 43 43.8 39Z" fill="#FAC663" fill-opacity=".1"/><path d="M27.3 96c2.8.3 7.5 1.6 12.2 3.3 5 1.9 10.2 4.2 13.2 6.5 8.2 6 23 4.7 25.2-9.1 2-12.8-7.4-15.6-5.2-27.6 2.1-12.1-4.2-20.8-12.5-23.5-7.7-2.5-17.2 0-23.2 9.8-6.4 10.3-15.2 6.2-22.3 17C7.1 84.1 17.2 95 27.3 96ZM76 51.4c-5.2-2-8.5-6.7-9.2-12.3-2-16.4 17.3-30.7 29.5-21.4 15.5 11.9-2 40.7-20.3 33.7Z" fill="#FAC663" fill-opacity=".1"/><path d="M76.3 75.5c-.4-16.6 20.3-28.8 31.5-18.2 13.5 12.8-4.5 38.8-22.2 32a14.7 14.7 0 0 1-9.3-13.8Z" fill="#FAC663" fill-opacity=".1"/></svg>