<svg fill="none" xmlns="http://www.w3.org/2000/svg"><path d="M33 127.2c36.6-5.3 65.2 40.3 37.8 61.7-11.8 9.2-29 8.3-42.3.6-31-18-26.8-57.7 4.5-62.3ZM63 112.2C32.9 135.9-16.3 91.7 5.9 60.7 15.9 46.7 38 44.2 56 57.3 76 72 80 99 63 112.2Z" fill="#FAC663" fill-opacity=".1"/><path d="M142.2 197.4c3.3-4.4 10.2-11 17.9-17.2 8.2-6.6 17.3-12.8 24-15.6 18.5-7.6 31.1-33.8 10.1-51.4-19.4-16.3-33.5-3.4-51.5-19.1-18.2-16-39.1-14-52-2.8-12 10.4-17.2 28.9-7 48.8 11 21.3-4.9 31.8 6.2 54.6 12 24.6 40.5 18.6 52.3 2.7ZM116.4 70.5a28.9 28.9 0 0 1-29.9 3.1c-29.8-13-34.2-60-6.2-71 35.5-14.1 66.4 44.3 36 68Z" fill="#FAC663" fill-opacity=".1"/><path d="M157 94.4c-28.2-16.1-27.8-63.1 1.4-71.2 35-9.8 60.4 46.8 31.2 69.6a28.8 28.8 0 0 1-32.5 1.6Z" fill="#FAC663" fill-opacity=".1"/></svg>