<svg fill="none" xmlns="http://www.w3.org/2000/svg"><path d="M73.7 77.5c30.8 37.8-1.3 101.4-44.2 84.9C11 155.3.3 135.3 0 114.8-.7 67.4 47.2 45 73.7 77.5ZM111.2 101.2C63.7 83 80.4-2.9 130.6 1.2c22.8 1.8 40.6 25.2 38 54.5-3 32.9-30.8 55.8-57.4 45.5Z" fill="#FAC663" fill-opacity=".1"/><path d="M68.3 249.2c7.3.7 19.5 4 31.8 8.6 13 4.8 26.2 10.9 34 16.7 21.1 15.6 59.5 12 65.1-23.8 5.2-33-19-40.4-13.3-71.5 5.6-31.5-10.7-54-32.3-61-20-6.4-44.4.3-60 25.6-16.7 27-39.4 16.1-57.7 44.2-19.8 30.5 6.4 58.7 32.4 61.2ZM194.6 133.3a38.2 38.2 0 0 1-23.7-31.8c-5.5-42.7 44.6-79.8 76.3-55.6 40 30.6-5.2 105.6-52.6 87.4Z" fill="#FAC663" fill-opacity=".1"/><path d="M195.3 195.8c-1-43.1 52.6-74.8 81.6-47.2 34.9 33.2-12 100.5-57.6 83a38 38 0 0 1-24-35.8Z" fill="#FAC663" fill-opacity=".1"/></svg>