<svg viewBox="0 0 51 31" fill="none" xmlns="http://www.w3.org/2000/svg"><path d="M50.8 17.6c-.2-.3-4.4-5.6-13.7-5.7-.9-1.6-4.3-6.7-9.8-6.7h-.1L24.7.5A.9.9 0 0 0 24 0h-3.8c-.3 0-.6.2-.7.5L17.3 5h-.8c-.2 0-5.4-.4-10.9 6.7H1.4c-.4 0-.7.3-.9.7 0 .3-1.7 8.4 1.1 12 .9 1 2 1.5 3.5 1.5h1.2a5.7 5.7 0 0 0 11.3 0H34a5.7 5.7 0 0 0 11.4 0h4.9c.4 0 .8-.3.8-.8v-7.1c0-.2 0-.4-.2-.5ZM27.3 6.8c4 0 6.6 3.3 7.8 5h-12v-5h4.2Zm-6.5-5.1h2.7l1.8 3.5H19l1.7-3.5Zm-4.3 5.1h5v5H7.7c4.5-5.2 8.6-5 8.7-5ZM12 29.4a4.1 4.1 0 0 1 0-8.2c2.2 0 4 1.8 4 4a4 4 0 0 1-4 4.2Zm27.6 0a4.1 4.1 0 0 1 0-8.2 4.1 4.1 0 0 1 0 8.2Zm9.7-5h-4a5.7 5.7 0 0 0-11.4 0H17.6a5.7 5.7 0 0 0-11.3 0H5c-1 0-1.7-.3-2.2-1-1.7-2.2-1.3-7.3-.8-9.8h34.5c7.8 0 11.8 3.8 12.7 4.8v6Z" fill="#FFFDFB"/><path d="M20.8 1.7h2.7l1.8 3.5H19l1.7-3.5ZM12 29.4a4.1 4.1 0 0 1 0-8.2c2.2 0 4 1.8 4 4a4 4 0 0 1-4 4.2ZM39.6 29.4a4.1 4.1 0 0 1 0-8.2 4.1 4.1 0 0 1 0 8.2Z" fill="#FFFDFB"/></svg>