<svg width="34" height="22" fill="none" xmlns="http://www.w3.org/2000/svg"><path d="M33.7 12.4c-.1-.2-3-3.7-9-3.8-.6-1-2.9-4.4-6.5-4.4h-.1L16.5 1a.6.6 0 0 0-.5-.3h-2.5c-.2 0-.4 0-.5.3l-1.4 3H11c-.2 0-3.6-.2-7.2 4.5H1c-.3 0-.5.2-.6.4 0 .2-1 5.6.7 7.9.6.7 1.4 1 2.4 1h.7a3.8 3.8 0 0 0 7.5 0h10.7a3.8 3.8 0 0 0 7.5 0h3.3c.3 0 .5-.2.5-.5v-4.7l-.1-.3ZM18.2 5.3c2.6 0 4.3 2.1 5.1 3.3h-8V5.3h3ZM14 1.9h1.8l1.2 2.3h-4.1l1-2.3ZM11 5.3h3.3v3.3h-9c3-3.4 5.7-3.3 5.7-3.3ZM8 20a2.7 2.7 0 0 1 0-5.4c1.5 0 2.8 1.3 2.8 2.7 0 1.5-1.2 2.7-2.7 2.7Zm18.3 0a2.7 2.7 0 0 1 0-5.4 2.7 2.7 0 0 1 0 5.4Zm6.4-3.2H30a3.8 3.8 0 0 0-7.5 0H11.8a3.8 3.8 0 0 0-7.5 0h-.7c-.7 0-1.1-.2-1.5-.7-1.1-1.4-.9-4.8-.6-6.5h22.8c5.1 0 7.8 2.6 8.4 3.2v4Z" fill="#FFFDFB"/><path d="M13.9 1.9h1.8l1.2 2.3h-4.1l1-2.3ZM8 20.1a2.7 2.7 0 0 1 0-5.4c1.5 0 2.8 1.3 2.8 2.7 0 1.5-1.2 2.7-2.7 2.7ZM26.3 20.1a2.7 2.7 0 0 1 0-5.4 2.7 2.7 0 0 1 0 5.4Z" fill="#FFFDFB"/></svg>