<svg viewBox="0 0 31 55" fill="none" xmlns="http://www.w3.org/2000/svg"><path d="M30.2 12.6c.4 0 .8.4.8.9 0 .4-.4.8-.8.8h-7.3a.8.8 0 0 1 0-1.6h7.3Zm-3 4.6c0-.5-.3-.9-.8-.9H23c-.5 0-.9.4-.9.9 0 .4.4.8.9.8h3.5c.5 0 .8-.4.8-.8ZM22 20.9c0 .4.4.8.9.8h7.3c.4 0 .8-.4.8-.8 0-.5-.4-.9-.8-.9h-7.3c-.5 0-.9.4-.9.9Zm5.2 3.7c0-.5-.3-.9-.8-.9H23c-.5 0-.9.4-.9.9 0 .4.4.8.9.8h3.5c.5 0 .8-.4.8-.8ZM22 28.3c0 .4.4.8.9.8h7.3c.4 0 .8-.4.8-.8 0-.5-.4-.9-.8-.9h-7.3c-.5 0-.9.4-.9.9ZM23.4 43c0 6.6-5.2 11.9-11.7 11.9C5.3 55 0 49.7 0 43.1c0-4.2 2.2-8 5.8-10.2V6a6 6 0 0 1 6-6 6 6 0 0 1 5.8 6v27c3.6 2 5.8 5.9 5.8 10.1Zm-1.6 0c0-3.6-2-7.5-5.1-9.2l-.7-.3V6c0-2-2.3-4.4-4.3-4.4S7.4 4 7.4 6v27.6l-.6.3c-3.2 1.7-5.2 5.6-5.2 9.2 0 5.3 5 10.3 10.1 10.3 5.2 0 10.1-5 10.1-10.3Zm-2.6 0c0 4.2-3.4 7.6-7.5 7.6a7.5 7.5 0 0 1-7.5-7.6c0-3.4 3-6.4 6.3-7.3h.4V22c0-.5.4-.8.8-.8.5 0 .8.3.8.8v13.6l.5.1c3.2 1 6.2 4 6.2 7.3Zm-6.5-5c-.1-.8-.9-.6-1.7-.4a6.2 6.2 0 0 0-4.8 6c0 .9 0 1.8 1 1.8.6 0 .7-1 .7-1.8 0-1.5 1-3.7 3-4.2.9-.2 2-.6 1.8-1.4Z" fill="#FFFDFB"/></svg>