<svg width="28" height="30" fill="none" xmlns="http://www.w3.org/2000/svg"><path d="M10.4 10a3 3 0 0 0 .8 3.4c.6.6 1.5 1 2.4 1 .7 0 1.4-.2 2-.5a3.7 3.7 0 0 0 4.4-.5c.6-.6 1-1.4 1-2.2l-.3-1.5c-.3-.5-2-2.3-2.7-3-.2-.2.2.4 0 .6h-.6L20 10l.2 1.2c0 1.3-1.1 2.3-2.5 2.4-.6 0-1.3-.2-1.7-.5a.5.5 0 0 0-.6 0c-.5.3-1 .5-1.7.5-1.4 0-2.5-1.2-2.5-2.5l.1-.9c.3-.7 1-1.4 2.1-2.5 1.1-1 2.9-1.2 4.1-.3l.7-.1c.1-.2 0-.5-.1-.6a4.2 4.2 0 0 0-5.3.4c-1.3 1.2-2 2-2.3 2.8ZM13.3 5.8c1.1 0 2-1.2 2-2.5 0-1.4-.9-2.5-2-2.5-1.2 0-2.1 1.1-2.1 2.5 0 1.3 1 2.5 2 2.5Zm0-4.1c.6 0 1.1.7 1.1 1.6 0 .9-.5 1.6-1.1 1.6-.7 0-1.2-.7-1.2-1.6 0-.9.5-1.6 1.2-1.6Z" fill="#FFFDFB"/><path d="M13.3 1.7c.6 0 1.1.7 1.1 1.6 0 .9-.5 1.6-1.1 1.6-.7 0-1.2-.7-1.2-1.6 0-.9.5-1.6 1.2-1.6ZM9 8.7c1 0 1.7-.8 1.7-2C10.7 5.8 10 5 9 5c-.9 0-1.6.8-1.6 1.9 0 1 .7 2 1.6 2Zm0-3c.4 0 .8.5.8 1C9.8 7.5 9.4 8 9 8s-.7-.5-.7-1.1c0-.6.3-1.1.7-1.1Z" fill="#FFFDFB"/><path d="M9 5.7c.4 0 .8.5.8 1C9.8 7.5 9.4 8 9 8s-.7-.5-.7-1.1c0-.6.3-1.1.7-1.1ZM22 8.7c.9 0 1.6-.8 1.6-2 0-1-.7-1.8-1.6-1.8-1 0-1.7.8-1.7 1.9 0 1 .8 2 1.7 2Zm0-3c.4 0 .7.5.7 1 0 .7-.3 1.2-.7 1.2-.4 0-.8-.5-.8-1.1 0-.6.4-1.1.8-1.1Z" fill="#FFFDFB"/><path d="M22 5.7c.4 0 .7.5.7 1 0 .7-.3 1.2-.7 1.2-.4 0-.8-.5-.8-1.1 0-.6.4-1.1.8-1.1ZM18.4 5.8c1.2 0 2-1.2 2-2.5 0-1.4-.8-2.5-2-2.5-1.1 0-2 1.1-2 2.5 0 1.3.9 2.5 2 2.5Zm0-4.1c.7 0 1.2.7 1.2 1.6 0 .9-.5 1.6-1.2 1.6-.6 0-1.1-.7-1.1-1.6 0-.9.5-1.6 1.1-1.6Z" fill="#FFFDFB"/><path d="M18.4 1.7c.7 0 1.2.7 1.2 1.6 0 .9-.5 1.6-1.2 1.6-.6 0-1.1-.7-1.1-1.6 0-.9.5-1.6 1.1-1.6ZM26.8 14a2.4 2.4 0 0 0-3.4 0L21 16.4c-.5-.4-1-.7-1.8-.7h-3.7c-.3 0 .5.2.5.4s-.8.4-.5.4H19c.8 0 1.5.6 1.5 1.4 0 .8-.7 1.4-1.5 1.4h-3.7c-.3 0-.5.2-.5.4s.2.4.5.4H19c1.3 0 2.4-1 2.4-2.2 0-.3 0-.5-.2-.8l2.8-2.5c.6-.6 1.5-.6 2.1 0 .6.5.6 1.4 0 2l-5.5 5h-5c-.3 0 .2.2.2.5 0 .2-.3.4 0 .4h5l.3-.1 5.6-5.3c1-.9 1-2.3 0-3.1Z" fill="#FFFDFB"/><path d="M16 21.7h-2.4l-1.3 1.4-3.4-3.2-.1-.7c0-1.5 1.3-2.7 2.8-2.7h4c.2 0 .4-.2.4-.4s-.2-.4-.4-.4H11a3.6 3.6 0 0 0-3.2 3.4l-.4-.4a.5.5 0 0 0-.6 0L4.6 21l-4 4.2-.1.2v3.4c0 .3.2.5.4.5h7.3l.3-.1 4.7-4.4.2-.3c0-.1 0-.3-.2-.3l-.4-.4 1.3-1.2H16c.2 0 .4-.2.4-.4 0-.3-.2-.4-.4-.4Zm-8 6.6H1.4v-2.8l3.5-3.7 5 4.8L8 28.3Zm2.6-2.4-5-4.7 1.6-1.6 5 4.8-1.6 1.5Z" fill="#FFFDFB"/></svg>