<svg viewBox="0 0 41 43" fill="none" xmlns="http://www.w3.org/2000/svg"><path d="M15 13.8a4.7 4.7 0 0 0 1.2 5.3c1 1 2.3 1.5 3.7 1.5 1 0 2.1-.2 3-.8a5.6 5.6 0 0 0 6.7-.7c1-.9 1.5-2.1 1.5-3.4 0-.8-.1-1.6-.5-2.3l-4-4.5c-.3-.3.3.7 0 .9-.2.2-1.1-.2-.9.1.9 1 3.4 3.5 3.7 4 .3.6.4 1.2.4 1.8 0 2-1.8 3.6-3.9 3.6-1 0-1.8-.2-2.6-.7a.7.7 0 0 0-.8 0c-.7.5-1.7.8-2.6.7-2.1 0-3.8-1.7-3.9-3.7 0-.5.1-1 .3-1.4a13 13 0 0 1 3.2-3.8 5 5 0 0 1 6.2-.5c.3.2.7.2 1-.1.2-.3.1-.7-.2-.9a6.4 6.4 0 0 0-8 .6c-2 1.8-3 3-3.4 4.3ZM19.4 7.5c1.7 0 3.1-1.7 3.1-3.8 0-2-1.4-3.7-3.1-3.7-1.7 0-3.1 1.7-3.1 3.7 0 2.1 1.4 3.8 3 3.8Zm0-6.2c1 0 1.8 1 1.8 2.4s-.9 2.5-1.8 2.5c-1 0-1.8-1.1-1.8-2.5 0-1.3.8-2.4 1.8-2.4Z" fill="#FFFDFB"/><path d="M19.4 1.3c1 0 1.8 1 1.8 2.4s-.9 2.5-1.8 2.5c-1 0-1.8-1.1-1.8-2.5 0-1.3.8-2.4 1.8-2.4ZM13 12c1.4 0 2.5-1.3 2.5-3 0-1.6-1.1-2.9-2.5-2.9s-2.5 1.3-2.5 3c0 1.6 1 2.9 2.5 2.9Zm0-4.6c.6 0 1.1.7 1.1 1.6 0 1-.5 1.7-1.1 1.7-.6 0-1.2-.8-1.2-1.7 0-.9.6-1.6 1.2-1.6Z" fill="#FFFDFB"/><path d="M13 7.4c.6 0 1.1.7 1.1 1.6 0 1-.5 1.7-1.1 1.7-.6 0-1.2-.8-1.2-1.7 0-.9.6-1.6 1.2-1.6ZM32.6 12C34 12 35 10.7 35 9c0-1.6-1.1-2.9-2.5-2.9S30 7.4 30 9.1c0 1.6 1.1 2.9 2.5 2.9Zm0-4.6c.6 0 1.1.7 1.1 1.6 0 1-.5 1.7-1.1 1.7-.6 0-1.1-.8-1.1-1.7 0-.9.5-1.6 1-1.6Z" fill="#FFFDFB"/><path d="M32.6 7.4c.6 0 1.1.7 1.1 1.6 0 1-.5 1.7-1.1 1.7-.6 0-1.1-.8-1.1-1.7 0-.9.5-1.6 1-1.6ZM27.2 7.5c1.7 0 3.1-1.7 3.1-3.8 0-2-1.4-3.7-3-3.7C25.4 0 24 1.7 24 3.7c0 2.1 1.4 3.8 3.1 3.8Zm0-6.2c1 0 1.8 1 1.8 2.4s-.8 2.5-1.8 2.5-1.8-1.1-1.8-2.5c0-1.3.9-2.4 1.8-2.4Z" fill="#FFFDFB"/><path d="M27.2 1.3c1 0 1.8 1 1.8 2.4s-.8 2.5-1.8 2.5-1.8-1.1-1.8-2.5c0-1.3.9-2.4 1.8-2.4ZM40 20c-.7-.7-1.6-1-2.6-1s-1.9.3-2.5 1l-4 3.6a3.7 3.7 0 0 0-2.6-1h-5.7c-.4 0 .7.2.7.5 0 .4-1 .7-.7.7h5.7c1.2 0 2.2 1 2.2 2 0 1.2-1 2.2-2.2 2.2h-5.7c-.4 0-.7.3-.7.6 0 .4.3.6.7.6h5.7c2 0 3.6-1.5 3.6-3.3l-.3-1.2 4.2-3.9c.9-.8 2.3-.8 3.2 0a2 2 0 0 1 0 3l-8.3 7.8H23c-.4 0 .3.3.3.6 0 .4-.4.6 0 .6H31l.4-.1 8.5-8a3.2 3.2 0 0 0 0-4.8Z" fill="#FFFDFB"/><path d="M23.5 31.6h-3c-.2 0-.4 0-.5.2l-2.1 2-5.2-4.9-.1-1c0-2.3 2-4.1 4.3-4.1H23c.3 0 .6-.3.6-.7 0-.3-.3-.6-.7-.6h-6.8a5.5 5.5 0 0 0-4.9 5.2l-.5-.5a.7.7 0 0 0-1 0l-3.5 3.3-6 6.3-.2.4v5.1c0 .4.3.7.7.7h11c.2 0 .4 0 .5-.2l7.1-6.7c.2 0 .2-.2.2-.4s0-.3-.2-.4l-.6-.6 2-1.9h2.8c.4 0 .7-.2.7-.6 0-.3-.3-.6-.7-.6Zm-12 10.1H1.2v-4.3L6.7 32l7.7 7.1-3 2.7Zm3.8-3.6-7.7-7.2 2.6-2.4 7.7 7.2-2.6 2.4Z" fill="#FFFDFB"/></svg>