<svg width="60" height="60" fill="none" xmlns="http://www.w3.org/2000/svg"><rect width="60" height="60" rx="30" fill="#FAC663"/><path d="M26.423 24.907a3.088 3.088 0 0 0-.247 1.228c.005.852.36 1.66 1.002 2.276a3.611 3.611 0 0 0 2.407.994 3.715 3.715 0 0 0 2.006-.518 3.707 3.707 0 0 0 2.007.519 3.617 3.617 0 0 0 2.39-.978c.64-.605 1.001-1.403 1.018-2.247a3.082 3.082 0 0 0-.354-1.504c-.225-.43-2.044-2.296-2.687-2.98-.162-.171.271.428.088.578-.183.15-.78-.088-.618.083.582.62 2.236 2.323 2.423 2.682.184.352.273.73.265 1.126-.027 1.314-1.148 2.374-2.552 2.414a2.76 2.76 0 0 1-1.707-.524.466.466 0 0 0-.545 0 2.762 2.762 0 0 1-1.707.524c-1.4-.04-2.545-1.138-2.552-2.45-.002-.317.06-.627.184-.919.287-.676.906-1.44 2.072-2.555 1.095-1.048 2.866-1.176 4.119-.298.195.137.472.1.618-.083a.396.396 0 0 0-.088-.578c-1.607-1.126-3.877-.962-5.28.381-1.27 1.214-1.925 2.034-2.262 2.829ZM29.26 20.753c1.135 0 2.059-1.105 2.059-2.464 0-1.36-.924-2.465-2.06-2.465-1.135 0-2.058 1.106-2.058 2.465 0 1.359.923 2.464 2.059 2.464Zm0-4.103c.637 0 1.175.75 1.175 1.639 0 .888-.538 1.638-1.175 1.638s-1.176-.75-1.176-1.638c0-.888.539-1.639 1.176-1.639Z" fill="#FFFDFB"/><path d="M29.26 16.65c.637 0 1.175.75 1.175 1.639 0 .888-.538 1.638-1.175 1.638s-1.176-.75-1.176-1.638c0-.888.539-1.639 1.176-1.639ZM25.04 23.707c.917 0 1.635-.846 1.635-1.926s-.718-1.925-1.634-1.925c-.916 0-1.634.846-1.634 1.925 0 1.08.718 1.926 1.634 1.926Zm0-3.025c.408 0 .751.504.751 1.1 0 .595-.343 1.099-.75 1.099s-.75-.504-.75-1.1c0-.595.343-1.099.75-1.099Z" fill="#FFFDFB"/><path d="M25.04 20.682c.408 0 .751.504.751 1.1 0 .595-.343 1.099-.75 1.099s-.75-.504-.75-1.1c0-.595.343-1.099.75-1.099ZM37.974 23.707c.916 0 1.634-.846 1.634-1.926s-.718-1.925-1.634-1.925c-.916 0-1.634.846-1.634 1.925 0 1.08.718 1.926 1.634 1.926Zm0-3.025c.407 0 .75.504.75 1.1 0 .595-.343 1.099-.75 1.099s-.75-.504-.75-1.1c0-.595.343-1.099.75-1.099Z" fill="#FFFDFB"/><path d="M37.974 20.682c.407 0 .75.504.75 1.1 0 .595-.343 1.099-.75 1.099s-.75-.504-.75-1.1c0-.595.343-1.099.75-1.099ZM34.43 20.753c1.135 0 2.06-1.105 2.06-2.464 0-1.36-.925-2.465-2.06-2.465s-2.06 1.106-2.06 2.465c0 1.359.925 2.464 2.06 2.464Zm0-4.103c.637 0 1.176.75 1.176 1.639 0 .888-.539 1.638-1.176 1.638-.637 0-1.175-.75-1.175-1.638 0-.888.538-1.639 1.175-1.639Z" fill="#FFFDFB"/><path d="M34.43 16.65c.637 0 1.176.75 1.176 1.639 0 .888-.539 1.638-1.176 1.638-.637 0-1.175-.75-1.175-1.638 0-.888.538-1.639 1.175-1.639ZM42.823 28.97a2.441 2.441 0 0 0-1.677-.649c-.633 0-1.229.23-1.677.65l-2.6 2.43a2.442 2.442 0 0 0-1.755-.728h-3.725c-.244 0 .467.185.467.413 0 .229-.71.414-.467.414h3.725c.82 0 1.488.623 1.488 1.39 0 .768-.668 1.392-1.488 1.392h-3.725c-.244 0-.441.185-.441.413 0 .228.197.413.441.413h3.725c1.307 0 2.371-.995 2.371-2.217a2.08 2.08 0 0 0-.144-.763l.015-.013 2.738-2.56a1.564 1.564 0 0 1 2.104 0 1.33 1.33 0 0 1 0 1.967l-5.49 5.133h-5.063c-.244 0 .21.185.21.413 0 .228-.243.413 0 .413h5.036c.117 0 .23-.043.313-.12l5.619-5.255a2.119 2.119 0 0 0 0-3.136Z" fill="#FFFDFB"/><path d="M31.969 36.655h-2.012a.458.458 0 0 0-.31.12l-1.39 1.282-3.394-3.174a2.521 2.521 0 0 1-.098-.697c0-1.477 1.286-2.68 2.867-2.68a.47.47 0 0 0 .077-.006h3.883c.244 0 .442-.185.442-.413 0-.229-.198-.413-.442-.413h-4.31a.464.464 0 0 0-.198.044c-1.771.244-3.142 1.649-3.2 3.358l-.356-.334a.464.464 0 0 0-.625 0l-2.34 2.189a.424.424 0 0 0-.041.044l-3.92 4.1a.398.398 0 0 0-.112.274l-.006 3.394c-.001.228.196.413.44.414l7.28.019h.002c.117 0 .23-.044.312-.121l4.707-4.401a.4.4 0 0 0 .13-.292.4.4 0 0 0-.13-.293l-.4-.374 1.314-1.214h1.83c.244 0 .442-.185.442-.413 0-.228-.198-.413-.442-.413Zm-7.946 6.694-6.655-.017.006-2.824 3.52-3.683 5.053 4.725-1.924 1.8Zm2.576-2.408-5.073-4.743 1.69-1.58 5.072 4.743-1.689 1.58Z" fill="#FFFDFB"/></svg>