<svg width="60" height="60" fill="none" xmlns="http://www.w3.org/2000/svg"><rect width="60" height="60" rx="30" fill="#FAC663"/><path d="M48.131 27.445c-.012-.268-.17-.765-1.088-1.082l-24.471-8.422c-1.255-.433-2.647.182-3.103 1.37l-.663 1.722-1.49 3.876c-.457 1.188.192 2.506 1.447 2.938l7.132 2.454c-.136.78.09 1.552.583 2.141l-1.52 3.952a.49.49 0 0 1-.459.304h-4.45v-1.376c0-.758-.652-1.375-1.453-1.375h-.969a.472.472 0 0 0-.484.459v7.333c0 .254.217.459.484.459h.969c.8 0 1.452-.617 1.452-1.375v-1.375H24.5c1.422 0 2.704-.85 3.19-2.114l1.487-3.868a2.895 2.895 0 0 0 2.084-1.319l8.334 2.869c.273.093.551.138.826.138.832 0 1.623-.41 2.066-1.093l.956.33a1.018 1.018 0 0 0 .74-.031.931.931 0 0 0 .5-.517l1.326-3.447a.894.894 0 0 0-.414-1.1l1.553-.684c.885-.391.996-.9.984-1.167ZM19.08 40.823a.472.472 0 0 1-.484.458h-.485v-6.417h.485c.267 0 .484.206.484.459v5.5Zm7.698-3.803c-.347.904-1.263 1.511-2.279 1.511h-4.45v-.917h4.45c.61 0 1.16-.364 1.37-.907l1.39-3.615a3.034 3.034 0 0 0 .9.337l-1.38 3.591Zm2.053-4.447-.034.001a2.052 2.052 0 0 1-.696-.112 1.965 1.965 0 0 1-.754-.47 1.764 1.764 0 0 1-.518-1.37l3.496 1.204c-.353.46-.907.73-1.494.748Zm16.267-2.49-1.325 3.446-.91-.314 1.256-3.267.257-.114.722.248Zm1.64-2.302-2.589 1.142-.62.274h-.001l-.727.321c-.853.377-2.32.437-3.205.133L21.04 23.266c-.252-.087.38.35.289.587-.091.238-.872.188-.62.274l18.556 6.385c.487.168 1.088.25 1.7.25.671 0 1.355-.098 1.922-.289l-1.1 2.86c-.274.712-1.109 1.08-1.862.821l-20.831-7.169c-.753-.259-1.142-1.05-.868-1.762l.828-2.155a2.39 2.39 0 0 0 1.2.902l.454.157a.492.492 0 0 0 .621-.274.452.452 0 0 0-.29-.587l-.455-.157c-.752-.26-1.142-1.05-.868-1.762l.166-.431.497-1.292c.274-.713 1.109-1.082 1.862-.822l24.47 8.423c.312.107.427.219.45.26-.02.043-.124.163-.423.296Z" fill="#FFFDFB"/><path d="m44.15 28.923 2.588-1.142c.3-.133.404-.253.423-.296-.023-.041-.138-.153-.45-.26l-24.47-8.423c-.753-.26-1.588.11-1.862.822l-.497 1.292-.166.43c-.274.713.116 1.504.868 1.763l.456.157 18.556 6.385c.884.304 2.352.244 3.205-.133l.727-.32.62-.274h.001Z" fill="#FFFDFB"/></svg>