<svg viewBox="0 0 47 37" fill="none" xmlns="http://www.w3.org/2000/svg"><path d="M47 14.6c0-.4-.3-1.1-1.7-1.6L8.3.2c-2-.6-4 .3-4.8 2L2.5 5 .3 10.8c-.7 1.8.3 3.8 2.2 4.4L13.3 19a4 4 0 0 0 .9 3.2l-2.3 6c-.2.3-.4.5-.7.5H4.4v-2.1c0-1.2-1-2.1-2.2-2.1H.7c-.4 0-.7.3-.7.7v11.1c0 .4.3.7.7.7h1.5c1.2 0 2.2-1 2.2-2v-2.2h6.8c2.1 0 4-1.3 4.8-3.2l2.2-5.8c1.3-.2 2.5-1 3.2-2L34.1 26l1.2.2c1.3 0 2.5-.6 3.1-1.6l1.5.5a1.5 1.5 0 0 0 1.1 0c.4-.2.6-.5.8-.9l2-5.2c.2-.6 0-1.3-.6-1.7l2.3-1c1.3-.6 1.5-1.4 1.5-1.8ZM3 35c0 .4-.4.7-.8.7h-.7V26h.7c.4 0 .7.3.7.7v8.3Zm11.6-5.8c-.5 1.4-1.9 2.3-3.4 2.3H4.4V30h6.8c.9 0 1.7-.5 2-1.3l2.1-5.5a4.6 4.6 0 0 0 1.4.5l-2 5.4Zm3.1-6.7a3.1 3.1 0 0 1-2.2-.9c-.6-.5-.9-1.3-.8-2l5.3 1.8a3 3 0 0 1-2.3 1.1Zm24.7-3.8-2 5.3-1.4-.5 2-5 .3-.2 1.1.4Zm2.5-3.5-4 1.8-.9.4-1 .5c-1.4.5-3.6.6-5 .2L6 8.3c-.5-.1.5.5.3.9 0 .3-1.3.3-.9.4l28.2 9.7a9.4 9.4 0 0 0 5.5 0l-1.7 4.3c-.4 1-1.7 1.6-2.8 1.2L3 13.9a2 2 0 0 1-1.4-2.6L3 8c.4.6 1 1 1.8 1.4l.7.2c.4.1.8 0 1-.4 0-.4-.1-.8-.5-1L5.2 8A2 2 0 0 1 4 5.4l.3-.7.7-2c.4-1 1.7-1.6 2.8-1.2l37.1 12.8.7.4-.6.4Z" fill="#FFFDFB"/><path d="m41 16.9 3.9-1.8.6-.4-.7-.4-37-12.8c-1.2-.4-2.5.2-2.9 1.3l-.7 2-.3.6A2 2 0 0 0 5.2 8l.7.3L34.1 18c1.3.4 3.5.3 4.8-.2l1.1-.5 1-.4Z" fill="#FFFDFB"/></svg>