<svg width="32" height="26" fill="none" xmlns="http://www.w3.org/2000/svg"><path d="M31.1 10.4c0-.2-.1-.7-1-1L5.5.9c-1.3-.4-2.7.2-3.1 1.4L1.8 4 .3 8C0 9 .5 10.3 1.8 10.7l7.1 2.5c-.1.8 0 1.6.6 2.1l-1.5 4c-.1.2-.3.3-.5.3H3v-1.4c0-.7-.6-1.4-1.4-1.4h-1c-.2 0-.5.3-.5.5v7.3c0 .3.3.5.5.5h1c.8 0 1.4-.6 1.4-1.4v-1.4h4.5c1.4 0 2.7-.8 3.2-2l1.5-4c.8 0 1.6-.5 2-1.3l8.4 3h.8c.9 0 1.6-.4 2-1l1 .3a1 1 0 0 0 .8 0c.2-.1.4-.3.5-.6l1.3-3.4c.2-.4 0-.9-.4-1.1l1.5-.7c1-.4 1-.9 1-1.2Zm-29 13.4c0 .3-.2.5-.5.5h-.5v-6.4h.5c.3 0 .5.2.5.4v5.5ZM9.8 20c-.4 1-1.3 1.5-2.3 1.5H3v-.9h4.5c.6 0 1.2-.4 1.4-.9l1.4-3.6a3 3 0 0 0 .9.3L9.8 20Zm2-4.4a2 2 0 0 1-1.5-.6c-.3-.4-.5-.9-.5-1.4l3.5 1.2a2 2 0 0 1-1.5.8ZM28.1 13l-1.3 3.4-1-.3 1.3-3.3h.3l.7.2Zm1.6-2.3-2.6 1.1-.6.3-.7.3c-.9.4-2.3.5-3.2.2L4 6.3c-.2-.1.4.3.3.6 0 .2-.8.1-.6.2l18.6 6.4c.5.2 1 .3 1.7.3.6 0 1.3-.1 1.9-.3l-1.1 2.8c-.3.7-1.1 1.1-1.9.9L2.1 10c-.8-.3-1.1-1-.9-1.8l.9-2.1c.2.4.6.7 1.2.9l.4.1c.3.1.5 0 .6-.2.1-.3 0-.5-.3-.6L3.6 6c-.8-.3-1.2-1-.9-1.8L3 4l.5-1.3c.3-.7 1-1 1.8-.8l24.5 8.4.5.3-.5.3Z" fill="#FFFDFB"/><path d="m27.1 12 2.6-1.2.5-.3-.5-.3L5.2 1.8c-.7-.3-1.5.1-1.8.8L2.9 4l-.2.4c-.3.8.1 1.5.9 1.8l.4.2 18.6 6.4c.9.3 2.3.2 3.2-.2l.7-.3.6-.3Z" fill="#FFFDFB"/></svg>