<svg width="60" height="60" fill="none" xmlns="http://www.w3.org/2000/svg"><rect width="60" height="60" rx="30" fill="#FAC663"/><path d="M45.216 20.303a.88.88 0 0 0-.8-.134c-1.02.308-1.789.92-2.158 1.26a3.859 3.859 0 0 0-2.102 0c-.374-.344-1.156-.967-2.196-1.27a.838.838 0 0 0-.857.234.717.717 0 0 0-.137.721c.259.736.679 1.896.826 2.301a2.574 2.574 0 0 0-.119.633c-.013.21-.009.41.01.602l-.29.571c-.19.374-.571.634-1.013.69-1.606.206-4.733.62-7.627 1.091-3.746.609-5.23 1.01-5.866 1.256a5.318 5.318 0 0 0-2.217-1.779c-1.367-.593-3.654-1.883-3.612-3.858.038-1.787.766-2.843 1.371-3.414.258-.244.394-.58.372-.92a1.19 1.19 0 0 0-.49-.875 1.37 1.37 0 0 0-1.815.164c-1.53 1.684-1.897 4.018-1.98 5.258-.083 1.251.313 2.408 1.178 3.44.62.74 1.465 1.399 2.514 1.96 1.016.543 1.751 1.41 2.069 2.441.028.09.04.185.039.279l-.01.477a5.424 5.424 0 0 1-.06.696l-.348 2.307c-.137.905-.763 1.666-1.64 2.084-.608.29-.956.908-.865 1.538l.637 4.403a.484.484 0 0 0 .49.398h2.62a.542.542 0 0 0 .297-.083.443.443 0 0 0 .193-.499l-.029-.094c-.205-.687-.768-1.213-1.484-1.415l-.123-.942a.582.582 0 0 1 .393-.615l2.503-.924a1.138 1.138 0 0 1-.004.082c-.025.435-.043.827-.055 1.165-.017.464.175.914.529 1.242l2.1 1.948a.514.514 0 0 0 .35.135h3.037c.26 0 .481-.198.495-.44.05-.842-.59-1.57-1.49-1.697l-.868-.122-.358-.523a.714.714 0 0 1 .014-.837l2.369-3.217c.72-.207 3.755-1.02 5.535-.635.024.217.088.43.193.629l3.453 6.584a.5.5 0 0 0 .445.258h2.348a.544.544 0 0 0 .294-.08.444.444 0 0 0 .2-.49l-.16-.592c-.153-.571-.613-1.009-1.192-1.18l.575-4.64c.024-.194.086-.382.183-.555a50.946 50.946 0 0 1 1.742-2.88c.536-.81.881-1.739.997-2.689.177-1.446.524-3.292.61-3.741.382-.506.557-1.176.509-1.962a2.573 2.573 0 0 0-.119-.633c.148-.409.574-1.584.833-2.32a.705.705 0 0 0-.24-.792ZM20.02 38.355c-.683.252-1.099.902-1.01 1.579l.165 1.267c.028.21.207.376.434.4.288.032.545.154.737.338h-1.394l-.579-4.005a.578.578 0 0 1 .337-.6c1.1-.524 1.881-1.484 2.131-2.598.89.974 1.526 1.895 1.835 2.64l-2.656.98Zm21.761-6.397a51.781 51.781 0 0 0-1.775 2.935c-.155.274-.252.57-.29.876l-.272 2.19-.598-2.745a.892.892 0 0 1 .178-.746l1.364-1.72a4.482 4.482 0 0 0 .965-3.296c-.028-.252-.271-.435-.543-.41-.272.027-.47.253-.441.505.105.947-.171 1.89-.779 2.657l-1.364 1.72a1.76 1.76 0 0 0-.35 1.472l1.217 5.59c.047.214.25.369.486.369.368 0 .688.231.778.563l.005.02h-1.419l-3.317-6.325a.883.883 0 0 1-.096-.518l.49-4.041c.031-.252-.164-.48-.436-.508-.272-.028-.516.153-.547.405l-.427 3.512c-1.615-.284-3.836.155-5.097.467a2.197 2.197 0 0 0-.497-1.777l-.723-.866a.521.521 0 0 0-.695-.082.437.437 0 0 0-.088.644l.723.866c.405.485.426 1.15.054 1.657l-2.465 3.348a1.577 1.577 0 0 0-.033 1.848l.48.699a.5.5 0 0 0 .343.207l1.091.154a.77.77 0 0 1 .526.31h-2.215l-1.955-1.813a.736.736 0 0 1-.24-.563c.012-.33.03-.715.054-1.143.11-1.47-1.439-3.375-2.372-4.38a.904.904 0 0 1-.248-.636l.056-2.642a3.425 3.425 0 0 0-.081-.338c-.39-1.262-1.286-2.322-2.527-2.985-2.793-1.493-3.28-3.297-3.198-4.547.175-2.627 1.17-4.087 1.75-4.723a.332.332 0 0 1 .44-.04.285.285 0 0 1 .118.213.277.277 0 0 1-.09.223c-.73.69-1.61 1.95-1.654 4.04-.053 2.494 2.598 4.02 4.183 4.707a4.287 4.287 0 0 1 2.03 1.798.498.498 0 0 0 .333.215.525.525 0 0 0 .4-.092c.516-.382 4.36-1.242 13.501-2.411a2.327 2.327 0 0 0 1.592-.916c.092.137.196.264.316.378.501.481 1.22.734 2.082.734l1.298-.001h.009a3.6 3.6 0 0 0 1.265-.184 56.188 56.188 0 0 0-.438 2.815 5.39 5.39 0 0 1-.857 2.311Zm1.853-8.702a.428.428 0 0 0 .001.319c.066.163.105.34.116.525.042.674-.122 1.208-.473 1.545-.323.31-.824.466-1.448.453h-.014c-.005 0-1.226-.002-1.25 0-.617.01-1.112-.146-1.433-.453-.35-.337-.514-.87-.473-1.545.012-.185.051-.362.117-.525a.428.428 0 0 0 .001-.316v-.003c-.048-.13-.454-1.248-.755-2.096a4.92 4.92 0 0 1 1.614 1.097.52.52 0 0 0 .572.13 2.773 2.773 0 0 1 1.994 0c.2.077.432.025.571-.13.007-.007.648-.705 1.615-1.097-.302.849-.708 1.968-.755 2.096Z" fill="#FFFDFB"/><path d="m38.778 23.256.001.003c.291-.759.291-.759.859-1.002a4.92 4.92 0 0 0-1.614-1.097c.301.848.707 1.966.754 2.096ZM44.39 21.16c-.967.392-1.608 1.09-1.615 1.098.82.24.83.416.86.978v.02c.047-.128.453-1.247.755-2.096ZM17.253 18.168c-.578.636-1.574 2.096-1.749 4.723l.564-.288c.044-2.089.924-3.35 1.655-4.04a.277.277 0 0 0 .09-.222.285.285 0 0 0-.12-.212.332.332 0 0 0-.44.039Z" fill="#FFFDFB"/></svg>