<svg viewBox="0 0 47 39" fill="none" xmlns="http://www.w3.org/2000/svg"><path d="M46.6 4.8c-.4-.3-.8-.3-1.2-.2A8.7 8.7 0 0 0 42 6.5c-1-.3-2.2-.3-3.2 0a8.7 8.7 0 0 0-3.3-2c-.5 0-1 0-1.3.4A1 1 0 0 0 34 6l1.2 3.5-.2 1v.9l-.4.9a2 2 0 0 1-1.5 1L21.6 15c-5.7.9-8 1.5-8.9 1.9a8 8 0 0 0-3.4-2.7c-2-1-5.5-2.9-5.4-5.9a7 7 0 0 1 2-5.2c.4-.3.6-.8.6-1.4 0-.5-.3-1-.7-1.3A2 2 0 0 0 3 .7c-2.3 2.5-2.9 6-3 8-.1 1.8.5 3.6 1.8 5.1 1 1.2 2.2 2.2 3.8 3 1.6.8 2.7 2.2 3.2 3.7v2.2l-.6 3.5a4.3 4.3 0 0 1-2.5 3.2c-1 .4-1.5 1.4-1.3 2.3l1 6.7c0 .3.3.6.7.6h4l.4-.1c.3-.2.4-.5.3-.8V38c-.3-1-1.2-1.9-2.3-2.2l-.2-1.4c0-.4.2-.8.6-1l3.8-1.3V34c-.1.7.2 1.3.7 1.8l3.2 3 .5.2h4.7c.3 0 .7-.3.7-.7 0-1.2-.9-2.3-2.3-2.5l-1.3-.2-.5-.8a1 1 0 0 1 0-1.3l3.6-4.9a22 22 0 0 1 8.4-1c0 .4.1.7.3 1l5.2 10c.1.2.4.4.7.4h3.6l.4-.1c.3-.2.4-.5.3-.8l-.2-.9c-.3-.8-1-1.5-1.8-1.8l.8-7c0-.3.2-.6.3-.8l2.6-4.4a9.5 9.5 0 0 0 1.6-4c.2-2.3.8-5 .9-5.8.6-.7.8-1.7.8-3l-.2-.9L46.9 6a1 1 0 0 0-.3-1.2ZM8.4 32.2c-1 .4-1.7 1.3-1.6 2.4l.3 1.9c0 .3.3.6.6.6.5 0 .9.2 1.2.5H6.7l-.8-6c0-.4.1-.8.5-1a5.8 5.8 0 0 0 3.2-4 15 15 0 0 1 2.8 4l-4 1.6Zm33-9.7-2.7 4.4c-.3.4-.4.9-.5 1.4l-.4 3.3-.9-4.2c0-.4 0-.8.3-1.1l2-2.6a6.8 6.8 0 0 0 1.5-5c0-.4-.4-.7-.8-.7s-.7.4-.7.8c.2 1.4-.2 2.9-1.2 4l-2 2.7c-.5.6-.7 1.4-.6 2.2l1.9 8.5c0 .3.4.5.7.5.6 0 1 .4 1.2.9h-2.1L32 28c-.2-.2-.2-.5-.2-.8l.7-6.1c0-.4-.2-.7-.6-.8-.4 0-.8.3-.9.6l-.6 5.4c-2.5-.5-5.8.2-7.7.7.1-1-.1-2-.8-2.7L21 23a.8.8 0 0 0-1.1-.2c-.4.3-.4.7-.2 1l1.1 1.3a2 2 0 0 1 .1 2.5l-3.7 5.1c-.7.9-.7 2 0 2.8l.6 1c.2.3.3.4.6.4l1.6.2c.4 0 .6.3.8.5h-3.3l-3-2.7c-.3-.3-.4-.6-.4-.9l.1-1.7c.2-2.3-2.2-5.2-3.6-6.7-.2-.2-.4-.6-.4-1l.1-4-.1-.5c-.6-1.9-2-3.5-3.8-4.5-4.3-2.3-5-5-4.9-6.9.3-4 1.8-6.2 2.7-7.1.1-.2.4-.3.6-.1.2.1.2.2.2.3l-.1.4c-1.1 1-2.5 3-2.5 6-.1 3.9 4 6.2 6.3 7.2a6.5 6.5 0 0 1 3 2.7l.6.4c.2 0 .4 0 .6-.2.8-.5 6.6-1.8 20.5-3.6 1-.1 1.8-.7 2.4-1.4l.5.6c.7.7 1.8 1 3.1 1h2c.7 0 1.4 0 2-.2-.3 1.2-.6 2.9-.7 4.3a8.2 8.2 0 0 1-1.3 3.5Zm2.8-13.2v.5l.2.8c0 1-.2 1.8-.8 2.3-.4.5-1.2.7-2.2.7h-1.9c-1 0-1.7-.2-2.1-.7-.6-.5-.8-1.3-.8-2.3l.2-.8v-.5L35.7 6C37 6.7 38 7.7 38 7.8c.2.2.6.3.9.2 1-.4 2-.4 3 0 .3 0 .7 0 .9-.2 0 0 1-1.1 2.4-1.7l-1.1 3.2Z" fill="#FFFDFB"/><path d="M36.8 9.3c.5-1.2.5-1.2 1.3-1.5 0 0-1-1.1-2.4-1.7l1.1 3.2ZM45.3 6A7.5 7.5 0 0 0 43 7.9c1.2.3 1.2.6 1.3 1.4l1.1-3.1ZM4.2 1.6c-1 1-2.4 3.1-2.7 7.1l.9-.4c0-3.2 1.4-5.1 2.5-6.1l.1-.4s0-.2-.2-.3a.5.5 0 0 0-.6 0Z" fill="#FFFDFB"/></svg>