<svg width="32" height="26" fill="none" xmlns="http://www.w3.org/2000/svg"><path d="M31.2 3.3a.9.9 0 0 0-.8-.1c-1 .3-1.8.9-2.1 1.2-.7-.2-1.5-.2-2.1 0-.4-.3-1.2-1-2.2-1.2-.3-.1-.7 0-.9.2-.2.2-.2.5-.1.7l.8 2.3-.1.6v.7l-.3.5c-.2.4-.6.7-1 .7a243.2 243.2 0 0 0-13.5 2.4 5.3 5.3 0 0 0-2.2-1.8C5.3 8.9 3 7.6 3 5.6c0-1.8.7-2.8 1.3-3.4.3-.2.4-.6.4-1 0-.3-.2-.6-.5-.8C3.8 0 3 .1 2.5.6a8.9 8.9 0 0 0-2 5.2c0 1.3.3 2.4 1.2 3.5.6.7 1.5 1.4 2.5 2 1 .5 1.8 1.3 2 2.4l.1.3V15l-.4 2.3c-.1 1-.8 1.7-1.6 2.1-.7.3-1 1-1 1.6l.7 4.4c0 .2.3.4.5.4h2.6l.3-.1c.2-.1.3-.3.2-.5v-.1c-.2-.7-.8-1.2-1.5-1.4l-.1-1c0-.2.1-.5.4-.6l2.5-1a1.2 1.2 0 0 1 0 .2v1.1c0 .5.1 1 .5 1.3l2 2h3.4c.3 0 .5-.1.5-.4 0-.8-.5-1.6-1.4-1.7l-1-.1-.3-.5a.7.7 0 0 1 0-.9L15 19c.7-.2 3.8-1 5.5-.6l.2.6 3.5 6.6c0 .2.2.3.4.3H27l.3-.1c.2-.1.2-.3.2-.5l-.2-.6c-.1-.6-.6-1-1.2-1.2l.6-4.6c0-.2 0-.4.2-.6l1.7-2.9c.6-.8 1-1.7 1-2.6A65.3 65.3 0 0 1 31.5 4c0-.3 0-.6-.3-.8ZM6 21.3c-.7.3-1 1-1 1.6l.2 1.3c0 .2.2.4.4.4.3 0 .6.2.7.3H5l-.6-4c0-.2 0-.5.3-.6a3.8 3.8 0 0 0 2.1-2.6c1 1 1.6 2 1.9 2.7l-2.7 1ZM27.8 15a51.8 51.8 0 0 0-2 3.8l-.4 2.2-.6-2.8c0-.2 0-.5.2-.7l1.4-1.8c.7-.9 1-2 1-3.2 0-.3-.3-.5-.6-.5s-.5.3-.4.5c0 1-.2 2-.8 2.7l-1.4 1.7c-.3.4-.4 1-.3 1.5L25 24c0 .2.2.4.5.4s.7.2.8.5h-1.5l-3.3-6.3v-.5l.4-4c0-.3-.1-.5-.4-.6-.3 0-.5.2-.6.5l-.4 3.5a14 14 0 0 0-5 .4c0-.6-.2-1.2-.6-1.7l-.7-1a.5.5 0 0 0-.7 0c-.2.2-.3.4 0 .6l.6 1c.4.4.5 1 0 1.6l-2.4 3.3c-.4.6-.4 1.3 0 1.9l.5.7.3.2 1.1.1c.2 0 .4.2.5.3H12l-2-1.8a.7.7 0 0 1-.2-.5v-1.2C10 20 8.5 18 7.6 17a.9.9 0 0 1-.2-.6v-3a5.1 5.1 0 0 0-2.6-3C1.9 9 1.4 7.1 1.5 6c.2-2.6 1.2-4.1 1.8-4.7 0-.2.3-.2.4 0l.1.1v.3c-.8.7-1.7 2-1.7 4 0 2.5 2.6 4 4.2 4.7a4.3 4.3 0 0 1 2 1.8l.3.2H9a66 66 0 0 1 13.5-2.5c.7 0 1.2-.4 1.6-.9l.3.4a3 3 0 0 0 2.1.7h1.3c.5 0 .9 0 1.3-.2l-.5 2.8c0 .9-.4 1.7-.8 2.4Zm1.8-8.7v.3l.2.5c0 .7-.2 1.2-.5 1.5-.3.4-.8.5-1.5.5h-1.2c-.6 0-1.1-.1-1.5-.5-.3-.3-.5-.8-.4-1.5v-.8L24 4.2a5 5 0 0 1 1.6 1c.2.2.4.3.6.2.6-.3 1.4-.3 2 0l.6-.1s.6-.7 1.6-1.1l-.8 2Z" fill="#FFFDFB"/><path d="M24.8 6.3c.3-.8.3-.8.8-1 0 0-.6-.7-1.6-1.1l.8 2ZM30.4 4.2c-1 .4-1.6 1-1.6 1 .8.3.8.5.8 1l.8-2ZM3.3 1.2c-.6.6-1.6 2-1.8 4.7l.6-.3c0-2 .9-3.3 1.6-4l.1-.3-.1-.2a.3.3 0 0 0-.4 0Z" fill="#FFFDFB"/></svg>